<mxfile host="Electron" modified="2024-11-21T15:58:30.641Z" agent="Mozilla/5.0 (Macintosh; Intel Mac OS X 10_15_7) AppleWebKit/537.36 (KHTML, like Gecko) draw.io/21.7.5 Chrome/114.0.5735.289 Electron/25.8.1 Safari/537.36" etag="lZt_7JKgzfPKPPUr-kCJ" version="21.7.5" type="device">
  <diagram name="ページ1" id="M3AGiZzQhhlZPhkQvb1u">
    <mxGraphModel dx="984" dy="718" grid="1" gridSize="10" guides="1" tooltips="1" connect="1" arrows="1" fold="1" page="1" pageScale="1" pageWidth="827" pageHeight="1169" math="0" shadow="0">
      <root>
        <mxCell id="0" />
        <mxCell id="1" parent="0" />
        <mxCell id="r4U9AMSot-IcRnKY342J-29" value="" style="edgeStyle=orthogonalEdgeStyle;rounded=0;orthogonalLoop=1;jettySize=auto;html=1;strokeWidth=3;" parent="1" source="qgEVVQASvOo5EFohjT_f-2" target="qgEVVQASvOo5EFohjT_f-8" edge="1">
          <mxGeometry relative="1" as="geometry" />
        </mxCell>
        <mxCell id="r4U9AMSot-IcRnKY342J-54" value="" style="group" parent="1" vertex="1" connectable="0">
          <mxGeometry x="390" y="200" width="280" height="430" as="geometry" />
        </mxCell>
        <mxCell id="r4U9AMSot-IcRnKY342J-43" value="&lt;font style=&quot;font-size: 20px;&quot;&gt;&lt;b&gt;Firebase&lt;/b&gt;&lt;/font&gt;&amp;nbsp;" style="sketch=0;points=[[0,0,0],[0.25,0,0],[0.5,0,0],[0.75,0,0],[1,0,0],[1,0.25,0],[1,0.5,0],[1,0.75,0],[1,1,0],[0.75,1,0],[0.5,1,0],[0.25,1,0],[0,1,0],[0,0.75,0],[0,0.5,0],[0,0.25,0]];rounded=1;absoluteArcSize=1;arcSize=2;html=1;strokeColor=none;gradientColor=none;shadow=0;dashed=0;fontSize=12;fontColor=#9E9E9E;align=left;verticalAlign=top;spacing=10;spacingTop=-4;whiteSpace=wrap;fillColor=#EFEBE9;" parent="r4U9AMSot-IcRnKY342J-54" vertex="1">
          <mxGeometry width="280" height="430" as="geometry" />
        </mxCell>
        <mxCell id="r4U9AMSot-IcRnKY342J-25" value="" style="strokeColor=#dddddd;shadow=1;strokeWidth=1;rounded=1;absoluteArcSize=1;arcSize=2;" parent="r4U9AMSot-IcRnKY342J-54" vertex="1">
          <mxGeometry x="20" y="70" width="240" height="60" as="geometry" />
        </mxCell>
        <mxCell id="r4U9AMSot-IcRnKY342J-26" value="&lt;font style=&quot;font-size: 18px;&quot;&gt;&lt;font style=&quot;font-size: 18px;&quot; color=&quot;#000000&quot;&gt;Firebase Authentication&lt;/font&gt;&lt;br&gt;Firebase&lt;/font&gt;" style="sketch=0;dashed=0;connectable=0;html=1;fillColor=#5184F3;strokeColor=none;shape=mxgraph.gcp2.firebase;part=1;labelPosition=right;verticalLabelPosition=middle;align=left;verticalAlign=middle;spacingLeft=5;fontColor=#999999;fontSize=12;" parent="r4U9AMSot-IcRnKY342J-25" vertex="1">
          <mxGeometry width="32.4" height="45" relative="1" as="geometry">
            <mxPoint x="5" y="7" as="offset" />
          </mxGeometry>
        </mxCell>
        <mxCell id="r4U9AMSot-IcRnKY342J-44" value="" style="strokeColor=#dddddd;shadow=1;strokeWidth=1;rounded=1;absoluteArcSize=1;arcSize=2;" parent="r4U9AMSot-IcRnKY342J-54" vertex="1">
          <mxGeometry x="20" y="320" width="240" height="60" as="geometry" />
        </mxCell>
        <mxCell id="r4U9AMSot-IcRnKY342J-45" value="&lt;font style=&quot;font-size: 18px;&quot;&gt;&lt;font style=&quot;font-size: 18px;&quot; color=&quot;#000000&quot;&gt;Cloud Firestore&lt;/font&gt;&lt;br&gt;Firebase&lt;/font&gt;" style="sketch=0;dashed=0;connectable=0;html=1;fillColor=#5184F3;strokeColor=none;shape=mxgraph.gcp2.firebase;part=1;labelPosition=right;verticalLabelPosition=middle;align=left;verticalAlign=middle;spacingLeft=5;fontColor=#999999;fontSize=12;" parent="r4U9AMSot-IcRnKY342J-44" vertex="1">
          <mxGeometry width="32.4" height="45" relative="1" as="geometry">
            <mxPoint x="5" y="7" as="offset" />
          </mxGeometry>
        </mxCell>
        <mxCell id="r4U9AMSot-IcRnKY342J-55" value="" style="group" parent="1" vertex="1" connectable="0">
          <mxGeometry x="30" y="10" width="120" height="182.5" as="geometry" />
        </mxCell>
        <mxCell id="qgEVVQASvOo5EFohjT_f-2" value="" style="shape=actor;whiteSpace=wrap;html=1;" parent="r4U9AMSot-IcRnKY342J-55" vertex="1">
          <mxGeometry x="20" width="80" height="125" as="geometry" />
        </mxCell>
        <mxCell id="r4U9AMSot-IcRnKY342J-28" style="edgeStyle=orthogonalEdgeStyle;rounded=0;orthogonalLoop=1;jettySize=auto;html=1;exitX=0.5;exitY=1;exitDx=0;exitDy=0;" parent="r4U9AMSot-IcRnKY342J-55" source="qgEVVQASvOo5EFohjT_f-2" target="qgEVVQASvOo5EFohjT_f-2" edge="1">
          <mxGeometry relative="1" as="geometry" />
        </mxCell>
        <mxCell id="r4U9AMSot-IcRnKY342J-36" value="&lt;font style=&quot;font-size: 20px;&quot;&gt;ユーザー&lt;/font&gt;" style="whiteSpace=wrap;html=1;" parent="r4U9AMSot-IcRnKY342J-55" vertex="1">
          <mxGeometry y="142.5" width="120" height="40" as="geometry" />
        </mxCell>
        <mxCell id="r4U9AMSot-IcRnKY342J-56" value="" style="group" parent="1" vertex="1" connectable="0">
          <mxGeometry x="30" y="230" width="120" height="260" as="geometry" />
        </mxCell>
        <mxCell id="qgEVVQASvOo5EFohjT_f-8" value="" style="verticalLabelPosition=bottom;verticalAlign=top;html=1;shadow=0;dashed=0;strokeWidth=1;shape=mxgraph.android.phone2;strokeColor=#3700CC;fillColor=#000000;fontColor=#ffffff;" parent="r4U9AMSot-IcRnKY342J-56" vertex="1">
          <mxGeometry x="10" width="100" height="200" as="geometry" />
        </mxCell>
        <mxCell id="r4U9AMSot-IcRnKY342J-27" value="" style="shape=image;verticalLabelPosition=bottom;labelBackgroundColor=default;verticalAlign=top;aspect=fixed;imageAspect=0;image=data:image/png,iVBORw0KGgoAAAANSUhEUgAAADAAAAAwCAYAAABXAvmHAAAACXBIWXMAAAsTAAALEwEAmpwYAAABF0lEQVR4nO2YOwrCQBBAx2RFL6DXWVvRwkJNYeMtUmrpAURRS6vY6BEEBU9g7SEMWI6sKPhJyArqzMo8mDrvzS4hBEAQhK+jN9ivbBHfmB5wQeSpkM1TIZunQjZPhWyeCtk8FVo+zIjQsnkitGweaJagP/RQshOsbDB0Vv7NCJ7ylhG85TMiEh/qR8d+aXlas5FPiUiV96MYzVhG9OCXmKthJkveMoLPz6sk+YwIN+T95Ai35P3rlFenbdr1I8OL4tA2QHXmh3x9vANueBYRRr5YHaIZ5yLUnbxzEepJvlAboWqM0WtNMNeeDYBzxE3+QTqYPU6bYYR5M6nuYn+Rbk5fpV2IgGAaZopLxC+Qk+DCX5yEIABLzq9GJ2/sHHe1AAAAAElFTkSuQmCC;" parent="r4U9AMSot-IcRnKY342J-56" vertex="1">
          <mxGeometry x="25" y="65" width="70" height="70" as="geometry" />
        </mxCell>
        <mxCell id="r4U9AMSot-IcRnKY342J-38" value="&lt;font style=&quot;font-size: 20px;&quot;&gt;Flutter App&lt;/font&gt;" style="whiteSpace=wrap;html=1;" parent="r4U9AMSot-IcRnKY342J-56" vertex="1">
          <mxGeometry y="220" width="120" height="40" as="geometry" />
        </mxCell>
        <mxCell id="r4U9AMSot-IcRnKY342J-58" value="" style="fontSize=12;html=1;endArrow=blockThin;endFill=1;rounded=0;strokeWidth=4;dashed=0;strokeColor=#4284F3;entryX=0;entryY=0.5;entryDx=0;entryDy=0;exitX=0.544;exitY=1.008;exitDx=0;exitDy=0;exitPerimeter=0;edgeStyle=orthogonalEdgeStyle;" parent="1" source="qgEVVQASvOo5EFohjT_f-8" target="r4U9AMSot-IcRnKY342J-25" edge="1">
          <mxGeometry width="100" relative="1" as="geometry">
            <mxPoint x="140" y="310" as="sourcePoint" />
            <mxPoint x="340" y="310" as="targetPoint" />
          </mxGeometry>
        </mxCell>
        <mxCell id="r4U9AMSot-IcRnKY342J-59" value="&lt;font style=&quot;font-size: 18px;&quot;&gt;ログイン・ログアウト・退会&lt;/font&gt;" style="edgeLabel;html=1;align=center;verticalAlign=middle;resizable=0;points=[];" parent="r4U9AMSot-IcRnKY342J-58" vertex="1" connectable="0">
          <mxGeometry x="0.6922" relative="1" as="geometry">
            <mxPoint x="-63" y="-30" as="offset" />
          </mxGeometry>
        </mxCell>
        <mxCell id="qgEVVQASvOo5EFohjT_f-6" value="&lt;font style=&quot;font-size: 20px;&quot;&gt;&lt;b&gt;Google &lt;/b&gt;Cloud Platform&lt;/font&gt;" style="fillColor=#F6F6F6;strokeColor=none;shadow=0;gradientColor=none;fontSize=14;align=left;spacing=10;fontColor=#717171;9E9E9E;verticalAlign=top;spacingTop=-4;fontStyle=0;spacingLeft=40;html=1;whiteSpace=wrap;" parent="1" vertex="1">
          <mxGeometry x="740" y="200" width="910.0002737520128" height="620" as="geometry" />
        </mxCell>
        <mxCell id="qgEVVQASvOo5EFohjT_f-7" value="" style="shape=mxgraph.gcp2.google_cloud_platform;fillColor=#F6F6F6;strokeColor=none;shadow=0;gradientColor=none;" parent="qgEVVQASvOo5EFohjT_f-6" vertex="1">
          <mxGeometry width="23" height="20" relative="1" as="geometry">
            <mxPoint x="20" y="10" as="offset" />
          </mxGeometry>
        </mxCell>
        <mxCell id="r4U9AMSot-IcRnKY342J-83" value="" style="group" parent="qgEVVQASvOo5EFohjT_f-6" vertex="1" connectable="0">
          <mxGeometry x="574.4283413848632" y="229.88876350153154" width="335.57193236714966" height="76.55295824601004" as="geometry" />
        </mxCell>
        <mxCell id="r4U9AMSot-IcRnKY342J-69" value="" style="strokeColor=#dddddd;shadow=1;strokeWidth=1;rounded=1;absoluteArcSize=1;arcSize=2;fontSize=20;container=0;" parent="r4U9AMSot-IcRnKY342J-83" vertex="1">
          <mxGeometry width="335.57" height="60" as="geometry" />
        </mxCell>
        <mxCell id="r4U9AMSot-IcRnKY342J-81" value="" style="shape=image;verticalLabelPosition=bottom;labelBackgroundColor=default;verticalAlign=top;aspect=fixed;imageAspect=0;image=data:image/png,iVBORw0KGgoAAAANSUhEUgAAAgAAAAIACAYAAAD0eNT6AAAACXBIWXMAAA7EAAAOxAGVKw4bAAAgAElEQVR4nOy9XYxk13HnGXkzs6jqlkVJS3ms5simTbPlxUry7oPXACVjNa8LGgT80hD31cJAMGQbDa2ahrjQyzboHgyMNQHDEGzA8ANnwUdBxr76YckG2gYGdg93sRLsgWc8lK2R+N1d1V1ZmbkP2ZEZN25EnDg36yMr8/8DGnW/Mu+52Vl14sTHP4gAAAAAAAAAu8M3vnnne+c9BgDA+dCc9wAAAOfDtZt3rzwYNs9du3n3ynmPBQBw9sAAAGBHeTBqnjrvMQAAzg8YAADsKE+/c/8pIhgCAOwqMAAA2HHYEAAA7BYwAADYUS5Npp8/7zEAAM4PGAAA7DgwBADYTWAAALCjPBgNP3feYwAAnB8wAADYcWAIALCbwAAAYEc5bgZX5U8AwG4BAwCAHeV4gIkfgF0GBgAAO87haAhDAIAdBAYAAAAAsIPAAABgB5H6/+PpjNAPAIDdAwYAADvIkx8cflnuQw4YgN0DBgAAO85k2EAOGIAdBAYAADuIVv+DGiAAu8fovAcAADh7HoyGn5sMm9b+OQ4HAHAOwAMAwA7C4j/j6ay1DwDYHWAAALCDaBEgiAIBsHvAAABgx+CSP179Ey0SAQEAuwV+6wHYMbjkT0/60AIAYLeAAQDAjsElf+wB4J/QAgBgt4ABAMCOIUv+JsNm6QmAFgAAuwUMAAB2EJ70ZR4AtAAA2C1gAACwY9zbG/2GdRxaAADsFjAAANgxZMmfTASEFgAAuwUMAAB2CJnpr6sADkdDGAAA7BAwAADYIR6Mmqes+D/z/K03nz3rMQEAzgcYAADsEE+/c/+p8XRG4+nMTAREJQAAuwMMAAB2iGZOX5Glf0SrUMDRcIBKAAB2CBgAAOwQx83gquX6JyLam87dCgEAwPYBAwCAHaKU6IdEQAB2BxgAAOwIXAEwGTYdGWCiRQhAXgcA2G5gAACwIzz5weGXiaiVAChzAfamcyJCTwAAdgUYAADsCDLBz8sDICL6/I8++PUzGRAA4FyBAQDAjsBSv3LVrw2Bo+EAksAA7AgwAADYER4Mm+d4wrdCAESLMAAkgQHYDWAAALADWAmAHu8/NoIBAMAOAAMAgB2AEwCJuqt+C0gCA7D9wAAAYAcoJQByCSCDREAAth8YAADsAPf2Rr/B7n+rBwCXAB4NB7Q3nSMREIAdAAYAADvA8aCb2GeFAvamczoaDujDvdFzZzIwAMC5AQMAgC2nTzz/aDiAIiAAWw4MAAC2nKffuf9UJvGPaBUC2JvOW4mDAIDtAwYAAFtOM6ev6Pp/C578ebuZ01fOZIAAgHMBBgAAW86DYfOcV/8/ns6WFQBy8iciCAIBsOXAAABgi5FxfGv1Pxk2nYmf9w9Hw6vIAwBge4EBAMAW8+QHh1+2yv4klgcAnQEB2H5gAACwxVyaTD8/ns46k7+lAUAEQSAAdgkYAABsMSwAxP8Y3tYTPlcA8PF7e6PfOLvRAgDOkkH5EgDAReTazbtXPn44eUuq/3loQ0BysDd68rVvfeGHJz0+AMD5Ag8AAFsK1/FnOgDyyl/+4+PQAwBgOxmd9wAAAKdDpo6fE/6sUAAjGwkBALYHeAAA2FIeDJulnr8XAuDJX674iVYhgaPhgH586bEXT3usAICzBwYAAFvI87fefDbj+mekB0CHAdAXAIDtBAYAAFsIl++VNACI2hO+NASkPsB//Pil//k0xwsAOHtgAACwhXD5ntcD4Gg4WP7jfX1O7v9P/+nt50990ACAMwUGAABbyOFoeJUojv3rbH95Th97e3/8HAEAtgoYAABsGddv3HmhdI1e+fOqX4YBdGXA87fefPakxwoAOD9gAACwZXDZniUBzFirfOs8M2kGkAUGYMuAAQDAlsFle1r+V2PV/nur//FsDllgALYMGAAAbBHXbt69Yq36x9NZKPbjbTOTZkDvPzZCe2AAtggYAABsEc+8fe/r1vHJsHG7/ln5AJrxbPFalAMCsD3AAABgi+DufxFS+U8eI/JzApgv/uM7/+t6IwQAbAroBgjAlsDd/4gWLv9S/F8L/1g9ASzQHRCA7QAeAAC2BM/9L5ErfTYCtP6/xaRZnUMYAIDtAAYAAFuCzNKPBIDktqz/l8aAZjybL40AhAEA2A4QAgBgC2D3f9b1z9tE3Q6AEWwETEZDhAEAuODAAwDAFvDkB4dfJvJX/owX97cSAzWTZrCsBuD7AQAuLjAAANgCZoPBt4n8rn/W6l7mAfA1ngYA0aoUkIiomdNX1h81AOA8QQgAgAuOzP5nrFCANdnrpMAS7AWYNAOEAQC44MADAMAF58kPDr/Muv9W+99okufEv8zkT7TyAoxnc4QBALjgwAAA4IIzGwy+zbr/Vg6AlflvqQKWcgCIRBJgM0AYAIALDgwAAC4w127evXI8GFz1Yv+MlPnVTX8yyX/8U5YD/vPlvefQGwCAiwsMAAAuMM+8fe/rcuWfaf/raf97YQDp9peCQEQQBQLgIgMDAIALjG7ROxk25kTuVQHInyXk5M9GAUSBALi4wAAA4ILy/K03nz0cDa/q45awj57kLU9AhC4F5P2f7I+vPn/rzWf7jB8AcL7AAADggvLM2/d/T+5r9782BKTgTzbrX078HAJohwQa+vyPPvj19Z4EAHAewAAA4ILy4d7oOSIyS/8YOeFbgj8l978V928nBc7oHx7ff3HNRwEAnAMwAAC4gFy/cecFK+HvaDig8XRmdv2z9ABqPAFy9W+Np89zAADODxgAAFxAuPZfszed02TYdGr/+ac2BPQ1FnrSt4wAaAIAcPGAFDAAFwwp/et1/yuJ/WRX/kTUWfnrkMDyOKSBAbhQwAMAwAXjmbfvfT2K+xN1J3q5+tfGgLf6Z7e/t6+BJgAAFwsYAABcMN57bPziZNiQ1v+3sCZ3qzrAgjP/Zfa/lwMwaRpoAgBwwYABAMAF4vlbbz7Lq35WALy/NyQiaiX/eT91DkAU+7ey/6NEQGgCAHCxgAEAwAVC1/4TLSZyzgXQkr96gteGgLX699z8WgSofW5Gk6YxxwcA2EyQBAjABSGT/Md49f81yNW+FASK8gAmTUPUDJAMCMAFAB4AAC4Iz7x97+tE7clfxv+19K/c196ATAdA6eqPVv+Tpv1nhMcJANhsYAAAcEH48aXHXiSi1uQvvQC67E9m/uvJP/IGSKU//hmt+sezWWsbyoAAXAxgAABwAWClPbni1yGAqAugjPd7k7/W/Zea/xHsAZA/oQwIwOYDAwCAC8BR07xKRKbrn4lK/jLa/9LNL/+VYA+A9ATMBoNvF18IADhXYAAAsOFw6R9P+qUEQCLfzV9a/Vv1/hkjYHFds/QC/NPlx1ASCMCGAwMAgA3nmbfv/56c9CMvQCnT3/MAtFv81lYLrP6MSC8ASgIB2GxQBgjABnPt5t0rn7r38C254j/NEkD2AOgSwIxhoKsBiAglgQBsMPAAALDBPPP2va/Xuv+JqFMCmEVO/jIHwG0ApCZ9nQ+AkkAANhd4AADYUKzVfwlr1a/lf6M8gD4hgMVru2OcDAc0ns7ptf/tl/F3BoANBB4AADYUXv0zMubvNQCSk78V74+8AdmyP0aW/Y1ns1b8fzHGxfv8yh/93W+m3hAAcKbAAABgQ3nvsfGLRPZk73kFSpn/llGgW/4S5YwA1v/nn54h8NmffPgnxTcDAJw5MAAA2EBeun77ZRn7J/InfUYm/8l9om4LYElpss8IAfHEL0sB5Xl4AQDYPGAAALCB/PjSYy9mE/6IupO9nvAz0r9yP9v8h1f7cuLXHgAieAEA2ERgAACwYbx0/fbLRIsVv9f4RyMn/JLLX6Ob/mRFgOSEb036+lp4AQDYLGAAALBhvPfY+EWe7DNuf/mTiDphgCxaDZCxQgAyAVDG/+U5DbwAAGwWMAAA2CCu37jzglzxe/X/fFy6/XUOQEb/36/v7yYGamTNP8f/3fsMB2gSBMCGAQMAgA3iqGle5cme/xF1PQG8byX8EeUmf6J2AyAZ79ehgO7r2oI/0gNgXj+d02Q4oP96ae/VcEAAgDMDBgAAGwKvjjn279X9W+5+LfDDuQA6J0DDCX968i91AtQhAHksAl4AADYHGAAAbAizweDbsvRPbzNyVW+V+kXbmlKs33/dLMz695gMB2gVDMCGAAMAgA3g+o07LxwPBld5X7r+x9NZMZlPhwIy0r8eGd1/vR0ZAZPhgCaPxjCezuk/f+wjV+EFAOD8gQEAwAZw1DSvElEr6Y9/ToaNu4rXSYBEdj+ACJkHEF/XjvfL8r/I/T+ezpf/GOQCAHD+wAAA4JzRq+Eo+U8iJ3ye9Eu9AJb3ECV/VrzfCwdo6d/S6n/xDIOWF4DfB7oAAJwvMAAAOEeu3bx7hVf/PPFrL4CHFefPrv5l4x/5j2mXAcZ/Jkq5ANoDwD9/4Z370AUA4ByBAQDAOfLM2/e+ro/pVX/GEChl+5eIsv69Gn+tAOi1BNY/pTcAXgAAzg/06QbgnLh28+6VT917+JaU/C3p/2vXfm28n6ir9Ccn/pL2v2cIeF6CyXCw1ADglb9MCJwMBzSe05OvfesLP0wNHgBwYsADAMA58Zn3D78j96UR4GFN/p72v5cDoOP7mfI/He8vJQDyKl9O/joPgPn/Pnn5RnEAAIATBx4AAM4BXv3zfp+uf/pY33I/XvWXVv/t167i/iUJYJ78iahVCdAyEOAFAODMgQcAgHPgM+8ffkdm+xN1SwD1NhF13P1y8s90/mMsrf/S5C8n+lL5n57wOQlQ5gBIwwBeAADOHngAADhjnr/15rOfee/wDSJf7c/DygEgopT4j4z96+0suuyvWCGgxhHlAzzYG37xuzc+dzs9GADAWsADAMAZ8/PvHvwZb1uyv14OgLXKX0fwp6T3r7E0ADrXOOOQHgB5LRsCh+Mh/aeP7d9KDwYAsDYwAAA4QzzJX96OqgAs97+XE+ChKwCyyMlfl/9JrJX98j3Uyv+4aZY/R7MZ/cK797/0/K03n60eHACgFzAAADhDWPSHyHb587GsFyAT/9dlfvJnFu3216v/1nlV86+PHTcNjadzGj16zf5kSkREx01DHzmavlE1MABAb2AAAHBGvHT99su8LVv+Wu7/Uj6ATv7LqP4t7y1aAFvnI+TqP8oFkCt/rQA4ms2WBgF7Afg4EcSBADgrkAQIwBlglf1Jd3/k+o/c/LXJf9YxKw/A0viXYQAP6ebXx4molQdw/Oh9RuI+HA5AWSAApw88AACcAZ/+8MFf8rYl9RsJAHlZ/xrPCxCt8CP5X+tY1PxHl/bxz8PxsJUEKCf+kXqv0WxGh6NhRyQJAHDywAAA4JTRiX96os+4+61jGdU/jcz8z1QA8Gq/1PCHqO3q94wBotWKnw2B46ZZ/lvcY04/+OTl53SXRADAyQIDAIBTRib+EVFntR9J/2qtf97WDYBKZYC1Cn/LsQmXv1f613q9EPlhRrNZa/UvOwPyeYZDAERE//D4futzAwCcLDAAADhFZOKfRq/8rQoAL8YfhQI691E5ALr1r8SL++tj3WdZTfxWAiCf48ld5wEQtT0DvB19fgCA9UASIACnhFT8I+qq/pU6/0ksyd9S8h/Ryar/ZVb/WgeAyNYCOBwPaX8ybe0T0fIYGwHHTUP70xkSAgE4BeABAOCU+Pl3D/7M0vrnY5maf8Yq+bNUALVHQK/8iXJiQFLtzxIAMpMEjaY/0iCQSYGj2YwOx8NWGSBfx7AR8P1PXn4tHCwAoBcwAAA4BTjxT07ucsLnf/K4ptT61woDaE+Alv3Nrvx5svfc/14YQHsADsfDTmiA3ftWBQDnCCzHMZ3TL7x7/0tICATg5EEIAIATRtf8M1bjH1kCWCP+w2TbAGdb/+qOfzIHoKbt7+LZuvu8+tf70uVvAW0AAE4eeAAAOGFKNeyW+E80+VsTfE0TIE8IqHtdt9OfbP4TIUv/5Gpf7k+Gg9aqXxoD+qc1PrQMBuBkgQEAwAly/cadFx4Mm+f0cU/8J4Ms/atBT6Leqn91vr3il4l/Uex/+fpHk7yO91uNgbRaoK4GGM/mLaPguGno594//G2EAgA4ORACAOCE8Fz/Eunut/IDJJbef1b/nyhS+esaAtHqP4uVA6BFgXQYQCMNgUkzoP3j6SJR8NE2ESEUAMAJAQ8AACdE5Pr32v7yvwgt/pNFN/uJSgCtOL/2BkRYin+8rxUBdaxfqgBKeMLnsR+OFlUDCAUAcDLAAwDACXD9xp0XtOIfUbn2P5v8x2STAK0WwH1r/zMNgIhsCWCJFPjJJABGxwYD+uJ3b3zudvqBAAAdYAAAsCYZ1z+T6f4n6ev+X96vUvxHZ/3XCgDpY9rdr0MEcvLXPQKI2kaATmaEQBAA64EQAABrkulcJ139Nat+rf5XW/bH21ZCYPt6u9lPaeWv4/4yAZBooezHsOiPlgHOeAD05D+azRAKAGBN4AEAYA081z9Rt+mPPMY/7+8N3ex+3fGvT/0/UVcDIL62mwy4eG3sCWBp39Z7OdLAGmvit85ZRgJCAQD0BwYAAD2pdf3LlX9NCIDIlgIu3lPlAdSEADLZ/zq73/rpIc8fjobL1b2e5D1xIOkRQCgAgH4gBABATzzXv874J6JO6Z9OBLTa+lqNf2qrAPhfjQSw9gJ4FQBa718e13kBPImPp/NlKICz/2W2f2by52oAfqZMCAYA0AUGAAA9eOn67ZcfDJvn9symOO2sf7nthQW02I92/8tzWWQfgPxrmo4R4HkDrBW+FP7hSV6f1xoAMgGQ0YmBkv3j6fL44WhI/88TH33uV/7o734z+YgAgEcgBABAJbrNbwlLBdA6TuS3/a3VACAqVwDo+H7k+q8RBdKGgScORNStAtBCQFbXQpnTIEE+AAB1wAMAQCVPv3O/OPlLjX/Z+Y+PlToA9p38rbi/N5FG7X2z1QCH4+HivMr+J2qHBvg6vtZy7VuTvy1a1O1rMGkGNJzO0kYZAAAGAABVfOObd7531DRkuf4lPOFLxT95POJoOHBzAUphADk56lJAfV5idQH08Mr85LlWkt8jt780CORqn1f/crwyL0A/w6QZtHIAOM/huGnol//47//QHTgAoAUMAACScKOfvdmMjlJZ8u1Evyx703lr1S+3I0+AnCBLdf+r1+TDAMv3Ui59mfCnOwFKDsfDzqSvxziazVrGgbXaH8/mtH88NT0EaBgEQB7kAACQoE/Jn7Ud4an+8Tmicv3/OhLAfWP8RF2jQB4vxf6JVh4BnuCtCoCsnsF4NkdpIAAJ4AEAIMGnP3zwl9lrdY1/1hPgufl1OCC8d2XpH0/6NY1/9Crfa/PLUsBc7ifzABgt/8tGizX5W8/Frn/5WiKi73/y8mvhQwAAYAAAUOKl67dfPh4Mrsq4v5cDYNX9S4PA8wJIF7/OAaih2+a3ZDB0Vf+yngDd5Y9LAKU3gF362rXPWMmARNTKCbDKGaUxYIUDPv3hgy8hHwCAGIQAAAjQUr818X9pBFg/PSzXfy0lFUCv3j+TACgneL1d6gLouf6tY/wcXh6Afk75ej6P0kAAfGAAAODAcX856ZcMgJOM/2ewyuVOIvZvGQJycs9q/HuiP97KX07uJUPgcDSk/eNpWDJIRPSxyRT5AAAYjM57AABsItdu3r3y6Q8f/GUznxOX/R01TWvbQsb4s3r/RN2uf/JYBE+KXvlfhpowgCXqw/vHTUP7k2lH7S9y+49ms2UvgMVrms51nheAwwRy8teGwHHT0GQwfYuw2AGgA3IAADD4zPuH32nm86vWOUsHwIrxW7X/cjsq7dNlgCX6yP6uXpuL/euMfs1oNlvG/cfTecu9zwaBzAcoj8vWLtDH5TNznwA5psPREPoAABjAAABA8dL12y/PBvRctOLX+5a+Px/3KgJ01r+M+9dk/mu8mn/NpGnMKgDzWlXKp5v9ECklv0ceATYCZP3/cdO0Xsva/tpTYOcudOP/unJAiwyNZ3O68uGD30a/AADawC0GgEAm/emJn/ejEIAV989o/1vbEdotfloNfzqvNZL9dPc/fY01McukQO9Z2ADwXPz6/Hg2p8NRN/wg73tpOkVSIACPgAcAgEdcu3n3ChG9qo+zu58nfWvyj+r+M9r/niEgr5HoVb6VC+Ch6/1Lq3+iWPxHXmNdp2v9tVdAT/55D0ZXGljey0o4PBgO33j0/wzAzgMDAABaJf0RdWv8Zczfq//Xdf/6nIen8JfxBlha/yXN//brm/TKX8v7ysnfqg6Q2zoPwKsAIFr1ALB6AciVvhQAImqX/vG+11J4MqCUoiMA2w4MAAConfSn3fxy+6hZrOb3Zt0Mf+nql0mBMiygsbr+6V4AFn6Hv3Z83JrgeeKX3QBLhgCv7r2yP10NIHMG9AQsEwLbYx3Q4WihFsg/5bPydYejYVj2aPUbkAbIh3tjJAUCQDAAAFgm/fG+VvzTeQDj6eKYFdv3vADaWIi6/clzXgWA39xHNwFyPBaJLPzW9Wrl71UDjKdz2p9Ml0aAbAAksVbnvLLnbflTGjzsHdAGBF9vaQ/I+xIR/fT9IyQFgp0HBgDYaa7fuPPCwXj4IlE7xi+3pUFgxf89Q0Ce01grf96XlNz/1krYvt5u9yu7AZqvU/e3GvtoSWBGuv6tSgDe9mr8ebvr1eh6P6LKAPZK6F4EHz+c/Ak6B4JdBlUAYGd5/tabz37mvcM3iKgzyVuZ/hkZYKsXwGmoAFqZ87UNgGpaAGe7/HlECoDecU/ydzH2uXneqjjgfTkWOXZUBoBdBR4AsJPw5L83m3Vi/PJntPrX4j/Z5j/Wat8TA/KQE19p8teTO8f+MwmAMu4vO/9ZOgDL95/OW6t8i0gpcDHmdoJjJB1svbee/Hk8bIjIZ3l/b4TKALCTwAMAdo5rN+9eefKDwzATPEoEtLAm+prVv9wn8mWAPRW8mtW/dvdnDQELqQFwOB7S/mTqlgyyC96b/KMSQO/Zjptm2Q+A973GQ9YzySRF9AwAuwY8AGCnkOV+jFffL+P/kfAPEbUS/6ycgCgXQLYALpX+yTa4vE8UCwHJcj9e+ct/JXiitP7J2D9LATNy1c39AfRqnGhlEHiSv9Gz7R9PWxUDfF/vOeRYNd//5OXXwg8CgC0DBgDYKbTGv5XkJyf7TOe/yN0vr5VIuV9dAZDR/peTZanm3yr3k16AmooAnUhnEcXe9YpfX8/HdBKg/CffRyYMavTqX1YyyOP8fp/+8MGX/vs//vv/u/iAAGwJMADAzvCNb975niz3I6KOm5//8b6HrO3XP5lIAMiq9Y+aA7XuXdn4R3sA+Jg8HyHj/rzK98R/GKsWv/O+geHC1QE610EaCPIe1r20h0Gicxi4ZPFT94++BI0AsCvAAAA7ga71z5T5Rat/OblbyYDyp0ZO9HrVX7P651BASf1PewC0FLBHaaKXLnVr1R91AbRq+PUz6ba+1vvrn9IIiCoTLP0CDml84sEEGgFgJ4ABALYeWevPWHK/kda/JJrg9ao/Ws1bpX99Vv+ZPIDF+Sbcb50TcX9LAVC71nWtv0bH/VsTtXgmKxHQcvPLPgKy5l+OQ0sR8zN0pIGFIcPPDI0AsAugCgBsNY/+iHca/OgyP6v2P1P3z8h8gEgDwGr6U1P/37pnRQfA1Wuyz9Pt7ifPlbAy8KOM/MXY8l0BrfvxPfR+eE/HwzEZLoyRJx5MoBEAthZ4AMDW4k3+RNSK9VuTfLbsTwv/WOeIqJPwx9t68i+FALLKf4trm87PbMKfFvfRyX96RS+PyZU34+UB6Ofxkvq8yZ9zBfaPp63Vv2UI6CoFIqL9ydR8Xr7n+3ujN56/9eaz5uABuODAAABbyaM/2q3J3xOuIVpN+NojECFX+VHDHyIya/2t/ZIXQMf942tXsX5P+tcyCLTOv9XQZ38ypf3J1JxorTI7nbkvn0c/H7f25X0u8+NzuusfNweSrn7LI6A9AXxdZ+Wv/g9gBIBtBSEAsHU8f+vNZ59+5/4b3nlrcs+6+iOiMsDI9a+vqekCmIn76wTA2jCAFQLg49Zqm8clW/rKkIB051vNfkqhAEkfiWH5DPp5iOyGR5PhgB4/OkY4AGwV8ACAraI0+Wssvf9oX7f5la1/icqCP3JbiwARxR4AnQBY4wXITvpE3YlPHtdNf+Qkqzv7aZYyvKKrH7vmrevlxK8NBo3VcjiK/UuDxvIM6ecmgicAbB8wAMDWcO3m3StPv3P/Dc/V78n6Rop/el8m+PE+Ubnkj8jvAFiDzHrPwBoANWI/3mrY+1y5/a+Ot+s6femmZ6zQgF7pT5rBMgzglQYyWgZ4+R6Ga9+TLLZaHaNvANhGYACAreDazbtXnnr34K2oM51czettXRVgxf+jhD/PEPCkfS3Fv1ICYFbvfzleI95f0/7XypD3YulE7bp/plUuKMr1+Kf1PHryH8/mSy+BZ/xoY0Mim/943w23GqBZeTz4+I8u7b0FIwBsAzAAwIWHJ39rlafR9f5ew59STkDWA8DoFb+uBiDKaQBYNf+RANDqtW1PQEkDgMifTDlzXp+PjIQaNUApdLQYa1snwHpf+f7SA6ETAnns+nmlp0OHOeR1zDuPjWEEgAsPDABwodGd/aJMf6JV+Z8V+7daAEssqV/tAQjvrTT/ddw/owJoKf9FbYB10l9NLgBn1Fu5ABKeYK1uf/oaD53XkOl1sH88NY0NWQrIE74sEdQ5DpYqYImDcUMfjIcwAsCFBgYAuLBk3P4ST/5XHyt1/pM/sx6AzGSfKQFsjacQDpCu/6z8b9TxT1/nrbrlfmmsXPev5Y1LcPhA35fvzddoLwCPXRsBXuLjpYlunSzKE8dDeALAhQZlgOBCIt3+RLaQi0fk+i8RKf55CoBeCSBRNzQQ3rughte+tp9tr0v/ZDhAJ9j1Ud+zzlnJf9Zz6mMZlUEZCrB6GeiSvwxWGeO/ODh68rVvfeGH6TcBYJqm+00AACAASURBVAOABwBcOJ6/9eazT7178BYRhatUi2iiL3X/W9yvO8mXmgBF9f81k7/86V/nC/1kKwE6inhCEIiIWm51zwvgNfvRiX9Wcp+e6L2SQn4978uGQ/r4/mRqxva9Z+WxW5+3laPwo0t7b6FEEFw0YACAC8Xzt9589pd+fO8N/UdcT1K1qn/yp4V09csEQK8VsJf1v04HwEz5n57waxP/2KDiY2xcSYU96RXQDX4YWfOvjQE5wVvqgLyy1uWD8rjl+pfjsfICpKEYeY6W36HZfBkCWH4mwiiQYz4cDeknHxlDJwBcKBACABcGnvx530pQ87AmfCvmr8MBnsRvKebfurdR99/HA1Dr/u+j+mftH46Hy1I6PXHKcIBe/Vs1/wxL+Gr1vygEILGqDCJVwNJze98lq/LC2mcjZf94CsVAcGGAAQAuBNdv3HlhPJ2/SmS7bSMjwNP41zkAe7MZ3R+P3Iz+Uqe/Ep4hYBkBGbncCG0ERMaANflZk72c9InInPBrKLn5WfxHGxH6vta9eewsUqSfUxo7B+NFfwHtNeLjyzE6BoJ+BnQRBBcFGABg45GTv6YmCfA0kv/4nHtPJ95fSgSs1fxvv7ZO858o503JTL56ZS9X5NwfQDf70cZOpPdv3TcyBPjZiMjUL7D6AHiTfOStOBwNlyEP9gb8zMFDGAFgo0EOANhorJW/FvzJeAD0ts4DyCQAWscjHQAr45//6es0keCPlwtgrfrb7+mr/1k5FPIfke1mtzLxWeOfz/Mz8OTvPY+VG8DvK9/fm/i99sP8DLIskP+Vvjs8Hs4FmDSDVmmgNHTk9aPZjP750mNv/Mof/d1vum8OwDkDAwBsLC9dv/2yXPlrbfaa0i1GhwKyCYCWCJA8po0ES+pXNv6xzkt0Upx3zn6tnGRn5vHVuFeT4OF4aE6KLPBD1J2Mrf2OQqCQAPbi6JbAkX6tnmzlfTVyotfCRF6uw6R5ZBiosYxn8+Xx8WxOB+PG9VZIRrMZ7R1P/wRGANhUYACAjeSl67dfnjTNi7xfik9beKt967z8ubqnXdZndQHUWJN7ZuXPyFVxbfOfxetmxUZAOiN+fzJteQCkxr8l82sJ8JQS8fSzWBM8C/zwNr+3PC6z/a0eBMv3V5O9/Nn6LB5N6OOpKkk0/h+9UACf096IZjb/k1/+47//Q3OAAJwjyAEAG8c3vnnne8PZ/LnMtZEbN0r409vl++RV/4h8D0CfLoCZFb9e6dfmACxfG3yeNWJA/li7LX2tbHp9Hxln12OR99XGBz+PKUCk1QCNvAtrrF61giVUJMf7YNS88rdfe/p3wg8IgDMEBgDYGK7dvHvl0x8++MvHjmdXrfNWi9oS0cqfqGwEWBn/pQqAddT+iOJs/5LbWU7+tWWArfsYKoC69I/PMdkSvEw1A+cS6EqAWo9D9JxR+Z835kwCII/TGt/DUfP6Z9+5fw2qgWATQAgAbAQs7fuxh8fm5E/UVv3jP9yZxi2MNdGXdP91xn+mAZAU+ukr+qO3s+V/pZj/8pyVeKjc/17OhdcNsHMPw5XPz9JK0nsU5pDPLV3++8fT1nGdA9B6jXouK/6v1SOXP41cC/7nhS7k/uFo2ApLWKGbx45nX0I7YbApwAMAzh0t8GPRR/NfIpP+9Krf8wLo1X+tBoCl/icpeQZqSv8W1/urfu+49blG6nhSB2B/Mm0lCBLFXgAryS/b+CfKN+BrJsOBWfdv9QPwNA48MgJF0hvgVSTIZ0KZIDhv4AEA58r1G3de+KUf33vjMVd8py1RazV18dCTPP+MlAAX92yv8HXsv+T+X97Tkf61riVqZ8QzpSRAntS91b4nA9ypdRf72k3Ox6LPvpQDsEyyExOo9ZzyeaOGQp33fzT5S2TIwmv8w7F/zuyXzxyNXY+br9Pyx1Fr5H++9Ngb12/cecF8SADOAHgAwLmhM/0jvNVpJgGQ9yWZBMBMp7/OfYd257+z6AC4ek3bEzCezehgPDRXv91n7q6GI3lfeU1m/JaqIe/z++wfT1vSunJV3acLodcJkD+DlkHwqM7/YNzQpcmslRzIPw9Hw+W4eKx6HIynbUC0+n7MmsFX//q3fvFPzQ8QgFMEBgA4FzjT/7HpjB5WSOrW6P9LrBBAtgqgJgFweT/D7V878ROVk/7ar9H197kkQL06litn2UWPyDYASnLApcx5ed1q7PNlAiCTSfYLx2F8d7xwhzYKdAKgNFQsSj0StKE4GwxQIQDOHBgA4EyRmf48+UdGQPaPtiaS/Y0mfmtyt1b/kSFwUiv+2sm/Nvs/SgTU5yz9f/7J0r9enF5ve1UAmQZAXv8BHf+XzxhN8q1kQCPZTx4vjVXnAHjGiGXIHA0HNB8MUCEAzhQYAODM4GS/zMQfUbP691b6NRoAi3uq1bUyAHSMv2/NP1Fd8p+lAVB8jWNU8Tnet4yuTNmf1chIPlepdl66/eVxvqfc189U88x6zOz698as93UIQFMKTegQET8bGgmBswIGADgTON6vJ/2MEVBy0Xr0cfev7tmv85/V/KevDkCfKgCiete/lRPALYCjbHZvdU/U1f2XzyWv88RzvAZA8r4Wo9mMDkW+g/fckpLLXz8DGylE1BEnssZTo13A35PRnJAXAE4dVAGAU+cb37zzvWZOLxLRcrLnrH85+XuZ6bpRzTplgERx45/F+6/q/nl/cf/4dUTdyT47+cvMeMsNXZIDZk9ArfvfS5CTWewyu15K8PJ5S45XGgQyO14+o6V3oCd7Lf2rz3nGgWwYVRT5cc5rTwCPm8Me7AHga+V4eFv3SzgYDztjtspDIR8MzgJ4AMCpwfF+Ke4jDYDMyt9zRddk/3urfz7utfitif172f+t+/VIAixf1834LwkA6XJKLwmQiRL/eBK0Vrk1MXULy8PgZf5rQ8Yr+yPyDcmoFfDyGkOuWI9Xj9k7VmoIRQTlQHC6wAAAp4KM9xNRdcw/Kt3KYon9eLX/3fuXQwBWjX+m3r9EZoKsnfgXz2THyTOfqydtG7m0IwNgMeZuZr3X1EePhcctE/9aoQhl6JTyHryxWs+RifnL5ysZAuwZiL5DEA0CpwFCAODEeen67Zd/+Z8/WCr7eZO+J/5D1N/dL9v7Wi7/o6ZJVQBY7n597PLRtHPN8j7DVdtfIl8CuDbOv3jNKvFPC/14nf+Wr1WucUvy10JOWtLlL4/pZ4qa/kgPgcwbsJBhB2kkaNU/Pflbz67HsnxuY4KX9fscArDGxsgQwHHTtMoYrfAIfz+0gcBGJX93joYD+udLj72BtsLgpIEHAJwY127evfKZ9w+/c2ky7XTykx6AGvc/bxNR6KZm9Cq/Nvlv8f6Oql6i9E9un0XiX/d9yuWUlqvc+rnUtDdCAnVj8jPp9TWWmE6ppp6v51AAY3mQPMOy5K3g8VpaBboRkMTylMjj2eoRPoZSQXCSwAAAJ8L1G3de+OjR9FV5jCd73iYqx/5rYtMW2bp/65iV/GdN+qelAUBUJwBU2+7Xmvwtoth7dA2jcwMytf6W9oEXbvCejahrJHrP6X2XokoFPTarBDAyThgvZKS/M9736NJkilJBcCIgBADW5qXrt1+Wk7+X6W+VAGqspjTe6tXDi/db0sCRyp/X+e/+XluhbvmeyZwAj0ggp32dGKMKBUQhgPF03mnew8gJan8ydTvu8bWmHr+YHNnNz+P3Khvk8+pwgpdr4D1bJpQRGQWZpEVZrcD7/Lx8nPEqAeT3oZQ7Yl17MB7Sf/6pj7yBKgGwLvAAgN7oLH9rxU/UnvizHoDSCs6jptvf6p5xFUB4v0Ldf+QByLj7rRWzlfhXowLohQEOjRI1Ir8KgLHq4K3VMx/3lA716tlbYWfwQht8zkrsi8bqfSbeeKLkyJLbX3+f+Jj1PUJIAKwDDADQC8vlL5HGgD5WU/6Xbdfqif5kJYBX985L/i7vXTACStTI4bZfl5f9JYrd4lGpX7EELxDO4eeLsuhL2f9RxYEU/omaATHR92g8nS+VAGuEingcsn8BnzsaDuiS6lIYCQBVfW/Ed3X/eAbhIFANQgCgmm988873vMlfr/R5X//06Fuqpt3+fExu3x+PnHt2cwEiZHY2USz+Y7n/rQx0y/UfUWoD3Lm+YERZE3DkdpfnrJWzJGr4M57Nl9n/VkWBFhnScsTaEOBr+KeX96DFpTolgupZ2M3PeQ37x9OW+A9n/Usjid391ng1e9N5J3xUCh3JdtUQDgJ9gAcApHn+1pvPyvI+iZXlX6MBECX/EZXlfzOCP1myq/8omSsTBvDczrXUJAN6dfCtlayT9R+5vNvjaa+eLSMianhUk/zH449aG8ttL/vfG0vUyyCqSpB456ykP3lcntPb9ufQ0BMHR/T40TESBEEKeABACq7t/4hTq82TvXT7swcgm/xnbTMZDwD/1Ct/7RlYvWc3EdCa/D0J4Ky71rsmcpuXmDTN8t/ivXwXulcaJzUBpORvNPnLZLbVWFbXW94CWd+vDR3r+a1QhBynHqOUKrbkfz11P28MlgQwj0O+ThsmkSaALPuTyCZAltdIXm+9Viet/uTSHv39xy8hQRCkgAcAhDx/681nf/7dgz+Tcr4aa7Uvt7PNf7zmNDWNf/SxGtaJ+5dKt8L7Vrr9ieqS/lrv4XgAeF/W/1vHrMS2SAXQWllbnfRKSoNy/FF9f/ZZrTHyMR6j3tclgFroJ/vZROeOWobLKinV0wa4vzc0DdTJsKHHH0xQLghCYAAAl5eu3365mdOLHzme0oORXT4m8Vz9tW1/s0lbjCfxm6kG0Jn/i3v6EsB9arhTz1wpBKQnfcsQ8FzgnsSyJ7hjTWilSX81Lt+FzlgZ/949zPs6VQ26tW8UApDjk2OPKgAsDsZDujTpdkLU4/fKQ63vTBQi8JDf2+Fs/srffu3p3ym+COwcMABAhyjWb5H1ANSWANZm/Vt1/meV+d934icqT/5S+rdv8x/rOGPFsuVxa5+z/zkpzjMIFmP0JYEjXX3L+OBz3rNkvj+REqFFJj/Di/3r54jc/Ot8h4jaxqzcnwwbunw0RT8B0AE5AKBFKdYv0YI/vC0neW/bI6tNb8X0Weffi/mv7tGN/a/uN+v8ITXv7/yRrhH+6YzLmcj15M/Halv/Ho6HNBkOltnyHJtmTX1Lr17Gr/UELMV+tAYAGzU8yU+aQctlztfpe+h76zFZE60UAbLCSJ2M/4Qwkb7GaupjxfxLzYw42986Ln/qbbmvv7+TYWNuj6erypf7e0PkBoAO8AAAIlqs+n/1v7z7BhG13P0l97+X/V+z+o9EW/h8hLf6z2K5+zNegNYYerr9iWyxnNzr+3kB9OcpP/PD8ZD2J9NO3J8okY1viOh4zypLCLl87iSy/5dJgGyAJMR/vH05biLbU+KFTfgcY4n/MJFr3/pORQZqRsBqPJ3Rz374AN4AAANg17l28+6VZ96+9/VLk+mLNRO/hacEWEON/r+X+GcJAq3ev/vHs4/rv0/ZH5E/yWS1/7PJf7V9FJYTsriuVN6mn4EoNmas/AC9srYmVi+MIQ2EkpEzaQZ0aTLrJAHqMcufpZCI9xlljJjRbNUCeF0hqcXzdo1XS91SMpzNX/mld+7fgorg7gIDYIdhNT852XvbEVr1r+QNsDhJ6V8mIwFM1C35y9b+837rnpUKgBnZ2e7rutUA7rWqokIf53McFvBWuIw1sUUyuvJZI7xVNWNN9p7Mr9VPwvxsKnIBvMS/jLdCn/Okf/kcH9MVAZePpstjVomq1c5aGgJHTUOXJ8fL63h/NCeoCO4oMAB2EC7t++n7D68S2S7/Pq5/ItvV33fyX3f1f388CmP5epVUEwJYJwmwdnJcXZef+FuvMxL+LKya/2wFwGqM3WeRxoFV/qffW47TvY9jBGS8HXqsUZKi9UwyfCGfiymFLqzvi+VBihQmu59H1yCQx0uMZvPXf+6DwxsIC+wWMAB2COnu52Nysu/j9pfUqv9J+vwBl3jtfj0vQLYBUFSuVVOWReTHyDOr/2y8f/Ec/sqYt4nak6+HV4bnTdReTb1VYqdj//L9rHFkSgD1uc6xIM4fKRfqsXmJkXxM77O7n8lM7KUJv9S90pr8dcmsrqBBWGC3gAGwI1y/ceeFJw6OXiUic7JfN+Yv92s8AN4kJfcjLwBRebKPyLYDJjo58Z+S/Kz/Or8c0H42uzxOn+NKACJqhQIkUT5ATQmgPl9KnpsMB8sqBe8ZI/e/dTyq9/eMAJ2vkM2N8LwBvQxIx+1vqVaG3isxHq90Fs2FdgMYAFuOdPdbq/114/9E3QZAcltP/pGSW+2qXxN1AvSIhIDCe/Wo3S5lmduvySf+tV7neAE8MpO6Pucl+FmZ9bJLnr5vVkWPG/6U4v7LMRkVAPo6K39BHudt63PyDBe9b3mRal381vnSpB99jzPdMy8dTxEW2HJgAGwplrufaLX6520i6uxnqBX8qZUAjpK4vEk96wnIZEh7RNn/JWpL/fSKP3UPY/XLSMOLV/pMKS+gtKLna7xM/1IDHSmta2XRZz0B+nkPxk0r+9+K73sGgHwGbcBY4ZNSQmDWEFg90yrxL5r8M6t9TybbEtPSv0P7x1OEBbYUGABbhjfxM5nVv8dJZPsT2atTeU5TEvbha4jqjABJTd2/VQlQ7NRWcPt7oQBpBMhjJbxkSi8E0JqMDR2AUgKg5d3ghD/9/NZz9639r60A8Fb6Vr6CNBLks3MSo5dDcfDIuCpN9qXtUi+A1WdQTmY1Za0bW0Kb0b9DMAS2DxgAW8RL12+/XJr45XYmF8AyDLQhwMckfQ2CEp57v1byN0r8W96rsGKzSrk6oi1r1P2vrq/P/i9Nhp7oThSPtxjNZnQ4GhafMaqXz5bXRQl/8rmt542SLmVCIu/zdXI8JWOIvxPZhkC17v7xdGYaB/KaxbO3v9vyXGcMykNQ+v1CfsB2AQNgC5AJfpo+E3+NNyBy/9dWAfSlbwLg6t5xL4Boxd9X/S93rZ30FxkBnitcKv2V1Oz0MQ+e/Ilil3qUPGdNqqxGqJMBo5U/P6fc188fhSaiPAA2DnTlwtFwsGz8k5n0o8S/0vepJE9dyvhffA4rPQBdCSC3vd+jo2FDH50cwxDYImAAXGB0Pb+HNAJ4nyg30ctrSk1/5HaN7n829i8pKf5Ff8gyXf869zOMAKL6JECiuAmO/9pyGWBJQ4EnpP3JtJMDQNSdjC3vRSYEILflylqOo0ZjgF9vJQDq57awVADlOaJyzb+174UtanQAiNav+89+h82xGB6AvdmM7o1HtCcMDvn7dDRslueQKHixgQFwAXn+1pvPPvP2/d/75OHRc5cmMzoYd3/xrUm/lPHvGQSWy986Xlvz723XaP9nMv+1KNA6yX/rdgGs9QDU4q2MeeVv4an9EfmZ7p5L3UoStFzp8r30uHii12PQzyf3a8WkanX/rSRGOfZSqEST+c5EZYKlksCMDoA+VjKi9T4MgYsPDIALRGbi10Slf7W1/9kGP30TAbM5AN6E36fsL0ySClb9ct+9VyH+X+sJqDEI9Ocrm/wQ2dr/TCTuw2Q9AURtj0dW6Ke0qva8R/In/36UlP7kuL1KBR6jHou8Tov9SLzVfqQI2Plsje+utd26r5rwvcQ/65psSA2GwMUFBsAFYJ2JXx9jaoSAPA+APl/SAIjIrP4ztcvWvn2/vPzvOqI/RPGkWMr+r0n4i7Z5n/EmV8vd3SnJawbLsr3Syl8/n+dS9yb+UuKf9X3h6w/GTVpyORL+8ZL/Mop/TG3Mv/2M9mSvr+mL97sjJ/bltY+O6XN6H4bAxQAGwAajJ34iCid/b9LXSYByu9YToJP/5HGi+sS/WgGgaAUTSf7K7XXa//Y1ApbjccRzutd1M//7GAS88pfnPDc2UZz8V0qWK5XSyXto+rrSOblPx/gtDQA53uV1QTtiIloaOpERYD0XJwhaEsB9OgBGq/zIiyWPRbX/y/FVrPoXY561jAJ5jIjo4w8nMAQ2GBgAG4hM7rMm/tN0/9d2AFy3418f/f/a1f7ifu2VU20eQN/M/4zQTPv6Ornf5euCz1ZjlQQS5SZhT8wo82yWzG4k7MOVAF6SqHzWzHjlfikHQDYukg2MSpUSUQJgTeJolPXvVauMp4tcF2tiJ7JzZ3i7hPV7Jlf9cvK39uER2ExgAGwQ12/ceWE2GHzbm/gz6EneO8f09QIQ+SV/p+EF8GqS+8T8eZsJJVONFZs+3rqf4w7nc+44xcSvjxPFXgBPWMlq+iM/6ygMoKsAdL1/9CyZ3IaS6987Jp+LyO5xYOn+Ryp/WVGmmjJJ7/si95leYaXg90uv+j0RrUgDQFYByPNH4r56sudj2iOwGvOAPnVw9Pp4Nv9zlA9uBjAANgCe+J967/Aquy2jn1ksY8CSAi5xEiV/kmypn8aa9DPZy1mFtJr6/+W9Cn+wsyv/9mvq9f+125+Ilkl/enKMGv7w8WpXvFH3L4V1dBJgadUsJYDHQlxHH9fPL3X/rfHpMIVU9pPjsz4Xa7xyOzPJW+JRkkjkR4tYWed5W078sv7fwvMElEIDOh/A8wLwsaPh6v/t4w8nMAQ2ABgA5wRL9j5xMGkp9/EEXzvZe5xEm1+mNPmXvAAZ6V9tFETtS/sK/yzum4//W9n/ReEWR2Qm4/q3zi3HqgyCjEAOkZ99L4lW5dYkHanrRe9v3UuPX0/8kVaEFw4oZft7/y9RjL8kiVxSiOzdR6IQ98/0BIgm9JrfKysBcPFss9b5yDCQ/4ePP5xAYvicgAFwxnBi37/84MFzRPaE721b+xov3s/niOpU/6ykvyj+X5sHkMkB8P54RQ1MvJh/1R9NtaLjY0R1bX/lfglvss+o/zGy5p8/19aKXHgBLDIlfvJ5Skl/REKEKFhtWyt+71m9MIDO/Nfj98ZYqlawnoWo+1mVkkRLJaTZlX6fhlaeEmBE1iBYXh94AkrG6hMHR6889cHha8gTODtgAJwR0s3Px9itL7c9V39fj0Cfpj8l+sT6NTVlf3KfqL72v3vv/OqfaL3M/z7Sv31d/96+tfKWlKoCvGfy2ufKfakE6I3DqwqISgOJut6iTEjJClVIo8T6PKwx6ONRrgiRXf+vr5HsTed0f28Y1v23wlXi9yEKa/G1Vl5AVvRHHmuPuZsAqK+ReDkryBM4O2AAnCKem19jrfD7xP2jMj95DVF98l/WE1Ci9g8200cAyFodRX8cx9MZ3d8bdty0cjtrBNS6xxfX5Sf+1TN2BXFKx6MyPIk1AfcRN8qGFCwyiYByTCWPUikp0MMbt3btS4OA8b4rtSWkkpR+RWBA6/0ojyaT+KePtcfa/g7K41E1B8IDpw8MgFPg+o07LzRz+gq7+SVecp8+p+ljCJyE+h/jGQBZLHd/Rvs/I/VbvrcfDoiIarbD+znCP3I/fn3OEPA+Uz5HZJf41SS5Wc8kj1l4ojql64ioFZrwWkbz80WTvVWiKJv6yGtK6oS8zXiei1KNv7xOUyMIVBPG0mgjQB9fjqfi98ya+K3Vvz7mlXRaRsGnDo5QRngKwAA4IaLVvpzk9TEvvt8385+oLPJTYwxkKgBOc/W/jvRvtu3v8l5Gct+6CoBZdP0/Ubn1r5dUaR2rcblb+5HYj4Rd6lYTID5vJdjpRj+lXJFMMyDPMNBj51AFP7d+vr7VEZYHibcZ7erPYLX9XT5LUAKYyZ2RZGv/F88Ru/vt5yj3BLF+witwcsAAWBMrtu9RWv0TnVz2P5EfEtBYx7NJf5LIEIjKtmoaANVO/l7XtNpOgLVYCWaZKoDs5E/U/Qz5GFG7AdBx0yxLAj31Oq/ZT6nRj35eb6Uc5RVkJtZosmBKE35kwOi4v5UXIMeqwxmWBHBWO2L1jGWxqkgN0Dpeo/hndQHUE34m079kGESGa5TkqUGuwPrAAOiBzuSvwYvvn+bqv6bzX0SfrH8i37onyrX9JapvVuJlSfdp/cvHiPzVv5cEx9s11CQDeiVxXvc/bRhoojI3yxiwDB2ZWFcSzClp/0+GXUVA+bzevhyv3LeS/iTagxGFATjWf+nR+JiMzG8xh8QwYL1zq8+gm+Uv6aOguXqmcl+AKBTA/696f/E8609DqCDoBwyAJNmEPokV3/e2+074jNf+l7eJ/AqATCMgK/ZfWwVQqvnXZGuX43vafyRLjX+sbaL68r9MAqBc9etj/nPZKyaesHiit1b+UuWvRpRHKgRq5MRa6v5nTfilsj/e1mRDSaX/Ey95UWf5lz4vy3iUxz1xICsMEGXy83F9/VHT0OXJMd0fjxb3CGL9Ne1+5X7GE7B4PtsoKIWusosDi8tHU9o/nsIYSAIDIOD5W28++/kfffDrNZO+hc4BiEIARLYHIDIOSpO/ZwjUdADMtAKOxH9qXf4SL3bpUVr1Zyd/ov4Z3OtWAdSEAHh78WzdGLn0BshJjZsERR6B6PkiouTD6D56xV+S+uVntjr/RfK/8hqdr+DF/D3vSOQxIrLFgPR2pP6n9zONgVpjceL9pRi/PLYYqx8KkNetxrta9d/fGz4aXxzz1/QxAphPPJjQcDaHMRAAA0BxUpO+hZzM5T4fW9cLQOTr/XvnSmQ8AJnYf1+XX0a0JDIIMuV/rfsZHgCvlWvnXklN+RK1ZYCteyaNLE+VL6y/D8IaOjRgJQF6egMZwR/9XJNmsPw94v1SjkIpROMZLaXPhY9xHkBUNVJKKs3mrlh4k78mKwJkre6jZL91EgFPIgwQAc+ADQwAOr1JPyrxW0ftT5JZ/feN9et9T/bXojbRxyLS/i9N+jUqad4Krjbzv8+qv/36cgJgKVu6JPrDxy3CCdlJosuWBsrxZLLqR7PZsiSwlDPiTf5ZGWZJRs44orZ5VG0uwHKcTrhgeT/nd4bPWfLa3Wex3fneij8KAWQy/s8KriSAMbDDBsD1G3deuDSZfv60VvpR2d9JPVhh1QAAIABJREFUNPvxJn6r05/etvYtomS/rEGwjuufWacHQGbV37nf0C7/C+9jCMzI4/Fr7YnfMwQsqV+5bYn+RPXsfDxaJXvPFOnql5T/pLufxyPPZSYMyzNQEirSzxCN1fvMIkMgWz7qfce81b93jMjOl6lNBKyV/V09x8og4P+Xy0dT02PgLQw0Z2UUsDGwN5v/h1947+D/2rXSwp0xAHiVf29v9BuZkr2ToiT4Uxvvt7Ba/+pzGW9Aqeaft4nqW/4S5d3TTG3d8uJe5Za/Xtc/T8glLN0yVv3yXIRV+09UV/8flcTJJECLkkvbUv8rJc5l75PNByjV+8vvkleyWDIAvHCIHKc3Vq4C0O7/bOmoG04KvFjhd9kImem4vzxnYSX7yXOLcZcT/voI/6y7WFiXTx0cvT4n+ve74h3YWgPg2s27V5784PDLniLfWXEaGf8WpbK/Gmq6/kXU1Gsz3kqmpgJgHaW05X0rXP9E/dzNq9fmkv+8CdEzBjzRHY01+fPx0Wy2FMmxVtbLqoOenQC1F4DH7pX+cbIfP6fcl4YAj9dSYozKMzNKiaXSP3nMo9hNUpX/ea2s749HZqa/Vz1jGQA1K/+S7G8Gb4I/r0k/grUGttU7sFmf9pqcpls/i7Xi1+es6/oYB1H8n/eJuln/6+r/E/XLAeDjJfrK/3ruUr1t3tNZ/RPVN/+pyfiX27XNfyyjypvA9Iq7pAOgn8kj0wNAv3cpFGB5jLwuf5HLX47dy80oCQJZ6NJApuRJIiLzeFQBUGrqc3lybB7PiP9kygAXY86V93l4fwvkeSJbAniT4KqCbQoXbOYnnYBX+Oc94ZeI3Pz6fB+8tr+69C9LX7nfUg6A3q9NADyp2P9JlAC69zQmypL63+KaugZArfcYdidd1gGwDIJSiVt3jHE5nScE5E32Jde/ZQxEMX85psj9L6/Tan9SClgLGMnPNGMUWNQqSVrlfxpP8tfb5n3GmvylCmAk/CO3S53/rCogPr54jv4VQufNNhgEF+bT5hj+g9Hwc+fp0o+oFf4hsuP96ygA8jZRnASoqc3879MHoE/9f23t/zpeAKL1DIFa93+NAFBWT8GKp2Zq2b0kxhKHo6GprFdKPiwpA5YmjtqVv74uqpCo7VroZf7ra5gaVcBayV/rWJ/k2UjzX14jj/dJ9mM20f3fh4uWQ7CRn/jzt9589ul37j91aTL9/Fkn7Z0G0ar/JGV/9TFJ9phnCMjtrPTvSWX+96UmB6Dvqn95L0c7v48xYBkB1krYOu4lr2VzASbNYCmFW3oeL/4vPQF6LNz0x8r4jzQjvPK/S5MZcfY/31tfo8dlPfdSHMnwAOhriOwyUT7O+953ynL5t8YceAA8t788X0r6szxrntiPpQbI1+ntKDSgw1XWsW0wADRsEOzN5v/hyr0H/++mGQXn+olLN/4mr+xrqGn4s07mv8YzBojy+v+lzH+mTwWAxPtl91YxROX6/6jRT8btL48RVa7Sekz2etVfkwTIZYBR3J+JFPnkeQtOAPQy6L1n1up6GRe69ZzWBFFKHsvW+uvWwFL7X38GkTegtsTPurb97DntiuX9xe9MlBRIZOsBRHK/q/HGqn81EsCLcW7nZJ/l8tGULh1Pl4bBeYYPzuR/gSd6IqJtWdVnyIr/1BgCXrMfeY63ieqrACwXPx/vW/on9yOyLUkz59ys6b0hXT6atldVieStDKWJcXVd1wAI39f4LPVELidIKe0bueCtMIBc/WsDQD+bjvlbGgClSV+7/K1nl8ZH5vtkeQNKhoHVErj0+VlkjYASUQ8LPh9VzNSGA6yYvz6/eCb7mqjjX01C8C4bB9pb8JHj2T+ctmFwIp/0tZt3rzwYNU+x256IaFcmecaL+VvXnGbr3yjbv0b7n48xGUGgdTL/mUi3nM9bZLKmW/dxVv99/2hb2ea51+XzJ7xzMvGP1fO0UJAna1uDjvdH2fSamth6lDjqVQZ4KoxRYyIrVOFN9Jb7n7eJ1pvsV89pVwMQ5YWsZDOgSA/AotQMiI91XheEACzXv3ce2Iync/r4w8nrc6J/T0R0kgZC+OnLiZ1osXonInowGn6OiGgbXPYnTa3iX98cgJq6/776/7wtyZb/1XgAotVJnxLAdQyBPqv/Wr1/y+VfUwngucitlb8kcm/b47QnUqvFblRpYK2i5fcjowAoX2ONc/k5JLr8yWeIwjdWqZ9GlgQyta1/l88RhK2s5lY6VGAZy5HhLH+3joYNfXRy7P6uZcv+5P9ZlBgYhXlAHZ94MKHRbP46EZE0EoiISobC8tP+xjfvfO+4GVzdpVX7aVNSASQ6P9U/IrvMz3P98zZRruSvjwgQk9Uqj5KparP9vRVcpusfk80D0Nn/JdU/IjInQl3yZ3kAGGtSzngBMvF+XV5XagIkn0MbAPoZ+dkz3yGrEkF6LLzEvtI+q/xFWIak/n5mvARRJ0uv9I+xzmeaaa3G7CsA6mt4e/FccfJftCDApH+2sDeBiOhvvvb0r434xGxA/+dHj44//5NLYyJarPJhEORZNwSQNQS8eP9HjqetST+TA6Bd/l4IwKoMYOREb5VtMUut9sTkn6EknlJa+XuTvzx/NBykVm7W5OhNmHKyl7kANfK/6zJpBjR69NH1DQfI9+r1OncC7H6fJJ3SMqdfwWlR8ghk34MpVQTUkAkRZBv/WHiT/DqqgOB04YRDopV3YPzIO0BUmQPghQR2Ld7vkan9z5T/ZYwBr/SvrwzwOqp/FrUlgH3c/u37+V3TlqsiY9W/vP+68dvkyl+r//F2+Dpn8o+0/nUsm49lKwBKCnp8TgvplGrrvfi+tb28j8ry9yb8Gm+MTFw8NH5HPMMoUvTzugB6eKt9fUxev3y+Umgr8fsUGQNeOaC36tf/d9wMyH5urP7XxcoLICq7/DUn/unrjP9t9yTUdP7jc0yfNsBRzf+6k7/cJ7InfutY5o94RJT4VzIE+gr+mOM4QyMgm/zHWG5wfa33BzXr/q8t9ePrdP0830vem8e4P5kutQDkuOXzZgSPvDFHJYuyNJHHVmoCVMqbsEr8vHMeUfKfpFjWaoQF5PGStoZXEmhtE9ntfvceVdqUvp81IkG7yk/ff0jzweBUKwPO9FNnD8Lnf/TBrxNtl+dAGwKnlfQX7RP1a/ur0dn+tR4A7w95RJ9EQM99mk0EjNq1ZgyBmsx/a8VfSgCsrarI6gGw4E+Ntr5E1s7ze1r3kpTK/XQiYOt+auIofZei3gSlZMVMuZ/8jsgcgWwOSakDoNzn3wcvL2DxmcyW17buU2lMe6I/izHbWgHRhL8Ym1+9shr/bnsCpKTwWZX/MRvxqW+TIFBmtX9SpYCeB6Bv7T9RPNnXNgCq+aPtJf5lW//y/jqcRA+AjAZALZYAkDyuV9HRKl+3+eUx877XQU8+W99mOnryzRo4JQ+BN0Yp9iOFfqRmgee9kM8RlYzyNlE3LCDPdZ+xbZyWelZIQyC7+vdKaL2V/WrMsfpfRuhHH48SOXfFANgkASBmoz/1i6T/H8X89TGi/hO/J/zD+5KSQeDV/ls1/6el+e81LIm8AJnYaPQH1cv6z676S/Xm8ev7tf71jkelgEyf+n+vwY5+Zq34x/djsve1nld+l0ra/3psHtJ7waJH1pg99OreOs7nit+likTW0sTvZfuXvGklcaAsmSRVKwywrRM/x+jHs/mfn/WqvoYL9elLT8Gmhg9Krn9NTdw/o/3fJw/Am+RrDIF16nqzf5C698zL/pr3NRK3MsZAlBDXvq492fOxWuRnKN3Y+vP1Jn3rvLzGezZrstTufqsDYPT++rm8SV8/uxXX5/vLY56XQkv9ZowUS+ffUozsW/O/SJTrVgSUvr/Wdz0qnbV+lyLRn0wbYM/1v3qWWM9h2yZ/qeK3CSv7LBf+f+C8vQTRat+7JpsDENX8y/Pr1v/L40R21z9NlPjXxwNQ4+6Psqezmv/yeK0nIFr5Z0MAfRIBiexJ34tr62N8nOV95fPo8Zca58hro2siV79+zj7JgF64wpIn9jQLStuMN+HLc/r6LFGtv1fdYun+8+uIqONZKyUALp7H7wNgnV+MPVaqrE0KvghctK5/HtvzP/IINgjOy0NQKv/TnETJn9b/J6pb/Zda+5bOZzO2JZkVS00LYKKKeGow0fdJ/pPHutd2S//6KP8tnsOuBLAMAi+b3Zvk+hgzkVa+zPSXeOdKiaPawGQZYCsMIMk8gxxbVi2xb6UIszedP1pBx99ZL/nP6wPQGmPi+5WpCugr/qP3re/xRfEEbMuEr9n8T35Nrt+488KlyfTzTxxMXjyp94xK//T+SVUBEOVDAX0y/4nqPACSaPVWYp12v+0x1Gf+W67d8B5OzJm37dd0wwD6uP9M8edqfcZa8986bj1LBstIiDLp5f2t0r/MRC/PRXkAkT6BTgT0sJ7FUgHk70upAkBT9CyppD8iu4Of7P4nKwWyfTMWzxAnAsrr7LF2vX5WWaAX5tl0Lh9Naf94+spFc+nXsvn/EycI5xA0c/rKSYQLsmI/RCfX7lfuW6yz8veEgIhiQ6BvCCCT+W+tULIr/+L9g1iuR59Oc6vrxAovMfkT+YaUN9Hrc0RxmZ4XT7dW1/r6Usa/5wWQz5jJ8PfGqceVqU6QlMoCNaVukZkJvhTGWj5jXy2LxO/P6nls/f++yn66CqAUvvKOnRefOjh6fTyb//k2T/iazfjkzwkOF9R6B2pi/Bmxn6xxkEkCzGLF/9dV/KuJ9ZX0/rO1/5mVf99kvwzZlb9e8WcqADLeFC9O7iX36W3rvH6uqPzPivfvT6ZV8sLed0e6+kvjLHli9GQfeTLkfoT3vSmFliJXvz5P5Av8dMbT2JUA9tjj8j/L1R+5/SXW9zHj/TlrxtM5Pf5w8sq2ufVr2GkDQNLHGMiUAJ60B8DK+tfna/Ckf+V+ib4VANaqv7b7H28v7pnzBPTN4u5T7qePEdVP/vo8kV8NUEoKzKz+5THP45HxPESUJgeJVQrolSZaz5JpWEREdDAe0qVHxovV/ter8fcSSfmaqNyPtxfPGX9vTePW+Z3JGgKLMZbr/vW59rPESZ6bMNkz7Nrf5Ulfcv7/IxtIyRjwPAC8TdSN9dfmAZTq/fsm/vXt9GcRrdzkL31GolRSUw2wuF9736Kk2551/2cNgO5ry5P/8trEKknW/DPRZF9SAGyP1Xa3a+EcvoeXaCjHzxLAcvzW88rzVglgZryWAqD8XOS4vSTAKCEwChl5hqX3XbXKWPm8N+Ev7xV4BbIhAG/it67LaPvzfqRhcdaGACvtYdLvAgOgwLWbd6888/a9r1vGwGk0+dFk3P3rJP3phD8+zvunLf6TWf3r49GKPxs7rVn912jkd1/bzxXO+0R2YpwV57cmY2vyjOr/vWe0FPTk+zHWxMrjdnsQFAydUhjAeg6ZBCg1DORzaG0AzdFwsPQIyGNE/ncl/Z0yJn0+bhF9r73fGXlOTvb8++Q1/VmNPd638JL/ar2D64JJPwcMgAoiY4DIV/s7CWMgU/NfmwCo9zONfyTRhKV/waOypVLs31o91U7+fRO3Os+cyPz3X5v3rEi81XFU85+pb+fxS0W8/ePp0lNA1I3/6+TDmlg/wwmCmkgUyKoGiBIDrfyErNofUV4ESF9fQpb/LZ4rF//PdP+r9aa1Xq8m+sz5yBgo/W04DSMAMf16YAD05PqNOy/IaoIa+d91ZICZdWP/RN2VfqneX9PnF7mPSEn7nnWqf5myvygMEGWXe14Aq+RvcX2+9n/xrHFipZ7EuDWw55aXAkCRjK6VZCdXzkRkltR5xoFMDPRCRfJ5s9+nKCTjJSnyZ6H3awwby4Cs1ZSwQllEdv2/Ow7DqCaK2/8SEd0bj0w3/2LMsd7/Ykyx8M/iOc5O+/9TB0ev/9wHhzcw6dcDA2BNuLRwNhh8+6n3Dq+uk+in8fIATioEoKnt+Nf3DzdRXcby6p5x+V82+U9uZ9y4nXH0SALsI/4TuVD5WEn4h49FIYGSmI68R6ntb8nNL7ejvJHo+1TyAETGiX6emqx/TZQEKI+vPoNY+3/5LI9U/ohsQ7k1horQmf8c9oTviQBZZIwCopOb/HexZO80gAFwgnDy4KXJ9EWiOBEwQ1T2x9uayBjwav29HgB6u/QHuq/4j+e6vD8emSV/er9vCSBRXQigJv5fO+EvX1eY/CJdAKKy/j5fc2h8R6LnsvIB5H1L95PegNb7Gl4AiSW7fGkyI1kVoEMUMklRjjcadyTla7n85WtqJX+j8FXGmPVCZqUJ3xP8KVUBWJQkgU9j0oeL/+SBAXBKcIjgk4dHVYJDpYx/L+7fpwVwlABYwjMGvF/2qJY58wcsmuz7NgAqUVoZl1/fdv2Xyv+IynFw3pYVAF6sX56znqc73vLzRVn/jLXSjogMSasEUD6LpUugx+E9h7zOe5aSu7+U5CfR8X99vUZL/xIRXZ4cE6v/EdUZAFYDoMW4bEXAmvr/KPN/9Tz9DAFe7f/1b/3in1a/GITAADhlOHFQewVKZCf+Wkqrf0kmCVDSp/ZfHq/Bao6Skf4tuW1b93AS/mo8ALydf668oJJXi2/hZf4TdZ+nRj9fvrcV97ckgL1nswxKa5VvoQ2AWqOkppNhyQgoxf4Xz+pr/xfzWpTb//LkeBky0ERx/8Wz2JLAcsKfDAePOhfGK35P1pnP1/LEwdErv/TO/Vtw8Z8eMADOkJeu336ZDYEIqwugbvG7bty/T9IfY1n72QSfqOyvj/rfaa3+I2pzALJ1/9H5Utmd3LYmsk5pXlDNoCdcL6Gu6HFI5jFkDB7Pe5H5v8iMn5/BE//JGo6ZuH/nGYKyViK7bJa3iXJeAK/GX5/nazxjIGoDbC0IvHMel4+m9PjR8VcR2z8bYACcA7XhASvuX9sGOLPyr20DzPsSbQDUigBZeMlTHqWM/9qyv3XISABbn6kU+vFCLXw+E5OPDIDoWTNZ9NY9ohW0fF6u8ed6fyJaxvg18prlMWHEWCJFcrz6uTTW94a3ieySQD7uGQyRARCJWslrPGpK/yz3vjXRlxL/MsZqH2lwuPnPBxgA54hOGpSU6v5PQvwnGwpgTkLcw1rxZw2BxT17JE0N7Zrt2g6AmSRAb6L34v9WfbSO70exbEkxE//Rs1glgRJPAlhn10deADPkUEhwrCHb/KeUvGjF/LnTn+UNkNSU/lnfVe87a53PeM4iz8DiOeKufzVZ/6vnsr2BevL3/t+fODhCUt85AgNgA9B5AhqvGoCIikZBZsJfp/2vPu5htTctrVyyGdPuPZ2Jv5a+XoB1wgCH4yHtT6ad83LVT0RLD4E+zpSMAWub0ZOnlV1vkZn8SyEAvdr3dP/lODOVAHJbTvCW4l9J919fV9MJUJJVBOTyQKsUkOk76S9fn0j4s/A8NnxO/98//nCC+P4GAANgw9B5Aicp/+tN8n30/9ep/e/TBCgrmdq559AvA6xt/FNKjvM6/0VYKyTPhVqa6IlyXe0mzaCl/ud5OKRcrqYmAZHHI4WAaur+PbwJXh+LDBW+zpvUPTLGpMz6zyb8WUmyR03TSvTLGM/WxL83m7WSAa28gEy2v5cQuHg2XwZ4PJ3Tpw6Pvgo3/+YAA2BDuX7jzgtPHBy9uk7yn7X61+d4myj2BNTG9CR9Ev9W97Un/nVFf/rU/zPZKoDFtXlDwFsJ62v4fGmC44neyv6XE6ac6L2wgCcGVKui5z2LNfZI7z/CKwmMSv8OxsOO61+SUY00xxoksBJ1y1n5muV9KxIALbxSP+s471tGQKYZ0OIZuhM/J/Zh4t88YABsOGwIEK2nAJgNAWSoXbn1mfjt+5bjpkT+5F/K4M4mxhXHmfAAWJ+htXria5nspCaxEgCJum51fZ6xSuys8cjn8p5XP3vrPtN2zX80Ln1euv69XAVvzBZebgBvS6Ik08mwebRiHriTfxTzt+hTQhs1/onKA4+GTef/1NvX/8efeDCh/eMZJv4NBgbABeH6jTsvzAaDb3/s4fHVdd3/ej8yBLxf7nV6AOh+AFHpn9cqNXXPxKTvUao7717fdv/L4+Hrgj+uluuf96UXoPQcssFPaWLl99QTZrTqLz1TdLwk+MPjqxVk8ib9rIfCy/z3tjOa/7xPVCdeRdSN83vnVuP3Y//uPQpeAKZkrGLivzjAALhgSEMgc33U+W+dlX+WrGxpJhRAlFMA7JOkZd6z0ABIT/Z8jCkp/3lxUn1MwsYAE7ngvYnTWj2XxHZ0QqCFlxOQLR2tCQlEGf9eRUCp9I+viWR/5b6HV9IXnY9kf2sb/ni/R6VwwGosi/8Lfa7kCfjo5BgT/wUDBsAF5fqNOy989Gj6anRNttSvb+Z/xiCoafvbvWd59VRy/fM20enp/q9eU5cEaK3woxh/1MVOHi/Fz7PtjEuTfie0UFj5l8IbPLZICVCOW0/8lg6A/mx0xr/nzYjCSNYxr/6/5LmyEgT1tdbqPxNWyyT96eM1XQEX4xwgxn+BgQFwwXnp+u2Xmzm56oInEftfN1ubKFcGWB5HXQtgazt1n4pJsv26fh3/vM9zOcFNu9oAmbFrbwDjrZS9/aiywBL/ifIbLKwJ33suKz9BPl9U628ZA56R6FUBpCpI1KSfmeSX72+s+NcR0vJEgZbnC2WAlvKf/P+8cu8hJv4LTN1fYLBx/O9/8Ozvff+Jjz45G9DvR9d5egBE1KkQkJTcfpEqGNHiD1XUxtS+Z9P5adVOt97P+GMsV2Xyj3qpxKt1n6B5znK8KuOfwwI6PODe49F49GcpJ/99VafuiQPJ8VqGQjT5d59rsLxXZHyMZgvlPj6nn8NL+NO5DqvQShyC0GNmI4X35cSvV/ZyW34PLk2m7veDvz+eYaCPXT5a6TdkG/8s38uZ7K3rdC6N9Xqv+U+nRNAR/zl6lMSoM/0ffzh55Uv/5d0nMflfbOAB2CKu3bx75TPvH37n0mT6nLfy94wAhs9Hmb5EdZ299GrlJJT/3HsF8dvaToC11MT/JVHdv742o8GfG6udA6Dx9Aa4yc9kOOgYJ14oQJ5jCeDMGEsNgKwxewmA1jMxOjygy0bldd3nsuWqrTI/eZ6PW6V/ntfM8qKVYv+ee5/PW1jufwj4bBcwALaQ52+9+ewzb9//Pc8Q4G1JZuLvowMQuf6j5j9EsavUvJcxwffN/uft8vXduH9WBnj5Hmp1pXMA+JhXhlcqB/RU//T56Hkt70OpAmA0m7USFiORGCvJzzNQMhN/Nuu/dD6K//P24jl8AyA637mfmuC9c0R1qn/+83Xj/xYffzh5/ec+OLwByd7tAgbAFmNVDFjJgFEuQJ+J3yvzWzfub63+x49ilJZr1mrawsfDe1YK/2jJ32z2fyYb3prI5Pb+ZNoxDrjkT46fn6t2UuUxWMlyURKgVdUgr5PP2zqXTGDkfU78I+r2KpDjryHyGEVa/1zvz/tWo59IGCgT7y8Z0PJY1OrXSvKz6v4/8eCIfvbDB1/ExL+dwADYAV66fvvlSdMsEwVrpX8Za4KKQgE1JX+12dLm/ZzVWpZMOVz3NXm9/9br1ASpP09Lu563iXyDQBoA0Yo6UgLk7dKEz0Ta/94x7/vjlSp6z2F9PqUOiZGOgeX2L32vLKMgMlyLYazAEFje0zEEeDvK+PeEf1bPszAEINu7/cAA2BFkfgARuR4AT/DnJMMAGaIVFHMaJYDZBLTFtbYOQE39vzyu8SYpT/dfHuPj3PUvyvbX5XP6vaPJVD9X1isg2wBbz57RJLCeP6NXUBL1ybym+/y+yl90DR8n6nrO5DGLrKiW1Qp4+R6GBwBx/t0BBsCO8fytN5/9+XcP/uyx49lVIt8bkHFVS2rdlwwfK7VLzYj+8D6R37s9Q9YDoCf7Wt3/yLDSiWySjBpf9EyR3LHneeB9Irvtr+cFIPK9HJH6nx5bqQrAavsbCf9Ydf9Esaxv6XtUKg1cjjvpEZDd/9YNq1mTvk4ChLt/94ABsKPosABTkvzNav8zte5/fSzzh3Ldtr996/4X19cl/XnqfhKr41+fZLZMHgBRe6K3JlrLrc7HrXFwhQA/b+13aNIM6NJktjQOImPIg0MZEX3q/aMcgFLCX9b1n0kE5G2i+twaS+AH7v7dBAbADsNhgeFs/px3TY34z7plSxlXv3vvIFu7j+s/kwtQk/y3fE2QQ2HFzGtW3V64QOcEWM/qJdBpQhGiwoo/Qq705bEoDMATfG0pZE0/AM+wLH2vauR+O/ctGABE/Sd9vX3pePr6Z9+5fw3u/t0EBgBYVgtwWKCk5Jb1AtTW/lsrJz6eYZ3Jv7YLYB/Z35JMLpFfCVAS4uFYv/dMWdd/1Eo3I/0r1QDl88htORYrCVAbX55REIUossmKRKv6/4NHJYtewp/V6S+S+7XUAPn3wtpndz9RLh/Ai/t79f58bm86o8uTY7j7AQwAsMIKC/SR/SXKr1QivX+5H94riN+GcdlgcilR2/WPqJxgKSen/cm0FQrITHRRvb8VDuAVtNbP1wmB+r7y3pmkP6LuRO8ZkfL44WjojqVUtshj1Pve9sF4WFztW1r/HpYHiyf5y5PjVmxfr/KtskDLoObjvG9pAlgNgB5/OHnlb7/29O+4gwc7AwwA0EInCRLlwwAlvX+972VJy31NFA6oLf8rJZiddB8AK+mPjx83zbKmP6LGzS29At7K2qoG0K51795eiWj03J1zhVI/fdwyhkpVAFEpo9cEKKMBoA0C1gGI4v0lwzbj/l+N1Rf+sSZ+JPkBDQwAYMLegEwFgCZbuiQpVQG491J/kK3jFqUVcuQNsLT/sxoArOvfec+hn+wWqfBl4tmeAFDUXlffK9IFsOSBtdxvlBTohQQyBlj0mVkljHL8GdloPlZDpnW1N9FHVTNRqZ8HGwn7x1Os+kEHGADAhb0BzXx+dV0PQB8NgNruf/oPdSZG/s7BAAAgAElEQVQHIJoIs2RW/XI/IuqeJyewjHRud5x5yd9U50Hn2aIeEub7iPFKQSKrGsFq92t5MvgZalQAPREg3s/mlZQ8WVaSq4z/L8djGAnR75Pl9v/Egwn9zMFDrPqBCQwAUOSl67dfPhgP3ZbDRN3ypNos5XU8AFl1tvD+Pd39JS9ASR631uUfteS15H2jZ7POl7QFIg+AzgWQz5pJIC3lZGQ0Cnhc+hgn+snjkeqfPs/XWEmAej/Srshk9kdx/xqDGqt+UAIGAEghvQHWecuVSdR/5S/puE8d1y1R3Upted+K5L/269qhgPDaYFXPIQGdCEjkJ9uVVrdWfkPJIJArallD793bCg9ZzxtVkFhji6oVvAoAOf5MjJ+PZ7UA5D6zN53T/b2hG9fvK22dyfb3fq+Ohg0a94A0MABAFZY3wHJREsUrlj4JgBbWxC+Pa6KGOB6W3n9tx7/lewVeAG917CW+8cRWmkQzBkC0uiailriPRHb8s9oCW1jtgLNGih5vKbkv08uAKDfZR8e88j95rI8OQBbE+kEfYACAaq7fuPMCEb0qj5UqADzWapoy7Aq1ZD0AkTZ+ON6mrvyv1EyJkVUAJRlgjTYGSjkNUbZ/zaRpPWtU7qd1ALLegKgk0Uvwsz4byUmFjjSWIaDr+z21P8/lXzrGk/9/+849xPpBFXkTE4BH/MGtX/13b31s/8lmTn9BtPrDZWUz8zGrTwDjTfKZyZ//WFv77v3ERGM1yvFf1/YEZCd/uXLm7fF0MQHKiYxX0pHc7qQZLM9bFQGRMcPPO5rNaNIMaP94SvvHi1X7eDYPJ9HRbCHNy9vRM/OzLVf6Og8gqL7Q4/cSGnkcXo4Eow0ForgBkJUXoH8unqVZ/pTbRF31P6t+3yv189AeNmlcf/zh5PX/4b9+8CQmf1ALPABgLTgkEPUlryGTBJj5o12rAJgV/5Fk2wDX6uF79ev6vIfXBXA17m6ZYzbu37mPo/uvJ/2o4Y88LyWJozJFLxmSBX1KnotI6a9Ppr8+R2TLAFvhgahRVmfcrXwGtOwF6wEDAKzN87fefPbpd+6/QWT/MYsaAPWOkwbu/4i+CX+r19d1AIzEceREZqkCesJAWvZXPttiTLbgT8k7oM/Jyb2YdKgmfV79X5rMlsfkOKMyRbldCtXUlC3q5yh1jswaAsvxOTkt1rZuAUzUlf2N6v4h5QtOAoQAwNp898bnbuuQAFEsXCL/WI6ns9aqX5/XyD/U/I+PR+iJJ1qRdl/rhCkKkyL/tCZymTRnSQHzMf1v/7gtJGSFNORkySv7w9Fw6e7X8DnmuFm47mv0APg5dYKjPsZj4/HxtjfBc3hCK/zp66xSQOk5sSZ/3q4VAJIrevn9lSEBokX8X8KtrxkZJvNEf6RhsDdbJPpdffcALn+wNvAAgBPl+o07Lxw1zas1zX/OwwuwvF8P7f+s6h9RWQhHN/1hMmV+UdMcvoaoLHVsCel4iYCRR0M+T03Iwxqb9ay8Lccnkxn1WC1qS0RLRKp/2t1vafybYzRW/7y/fzyDyx+cGPAAgBPlD2796r/7x4/vf3E2GPwgus4STamV/pXHtBfAq+1eZqAnYv8y0Y9d/boKwH629sRn/eQVNq/y5WqbkQl3OvlvKZ1bmPwlvJLuPmf7WllCp1sS67CEJ/gTfSbWhC+fh685HA1bXgI50cv3kp+TDKvI74T+Xsif8p88Zz9He5XP31uN9AjwvvYGWMgkP2kIXD6a0n/3k3tPYvIHJwk8AOBUuHbz7pXPvH/4nQfD5jnvGisxShsF9/eGdPlo2jEM+mq2ezHxkiegRv8/aoXL2/I6SUmJz3oW6ziTif97ojrmPY1Yvz6/vLfIA7BKASV6nFKUiGglERwJAEXjJrIFpPR5JlL9i7oCeq2BF8/ejv17XgBdIjiazV//m689/WvuwAHoCQwAcKq8dP32y+89NlYthv0WwNlOf9lkrchVnkkI7Ov6XzyXsQpXLnLdCjiqyefzMh7OZX0y69/yBmjd/FYCojimse7PDY1Mb4Jy/0+agZkIKMeWTVK0noc/Jz1WTwFQ72eEpDzXfvu544nf0/on8nNlkOUPThsYAODU4bwAeayv9j+RLfhTm729HEeFEZDJ/Pekb60J39PSz4oAWQJAspkOH7fu5b13NKasIJD8LORnwFgd/6yQTK0IkDzHZMZd00TKm+i9eL95v8aWzSZqV8xA2AecNjAAwJlw7ebdK5/+8MFfHg8Gy14CfRv+9G7TGtT9l1r/Lq7Jy/16tfEy4c8q8/Mm6ZbErhG+sM5Z0sBWnf2kGSxL/ryJ1Mrut9z/Ub2/HBuHBThMIPH0/rUhY52PiFb9VY2jAg+W3G/du7EV/6zSv8cfTOhf3nv45Gvf+sIP04MCoAcwAMCZIfMCSp3ULEp/wLN/yGvi/jrhr8YgOBw/Wo0XEuQ8DXt5nidPT/bX82R4Gf4RlsvfyvznZyo9X+c1jiGmj5X+fyLXv7Xyz4YBGC8PwPqeebX+pe6AGsT7wVkCAwCcOS9dv/3yjy899mKty9861scLQBRPLtHEH+UDeEp4Xpe8kutaH4/c2RlXerRi9lz++p48fq80ULv2iaiVBJgdr3VMVwH0CUsQlfsAeIZAJOhDZCv/8XGvFFC6/x8/Oka8H5wpMADAucB5ATU5ANEf5xoVQN4myukA6ETATCUAkZ8PQFReiUc5AqzjrxUBS+p/VhhA30/eRz+H3GfkxN8RWlKx/pLwUhTvJyqr/WXki5nsqt8da+XE74F4PzhPYACAc+PazbtXPnXv4VtE5RBAVAUgyXQB7Nv9r2+7X86ar4n3e5OXl+UfZf4zJU9AlEXv5TJYng79nF7XPzkmayx8XhssNXK/Eq/lr1UB4H2PIvEqTwzo/nhElyfHZgngeDqjq+8eIN4PzgUIAYFz47VvfeGHP/7oY0+O5vMfENnJU4z+o+1N8jU5APY5a9LNdf6TnfCkDPD+ZGq+hicq+Y/xZG39ZMXVSpu3pWTwcdN02v/qe0q8Ej+mtfIXzyrHM54uxnowblrj00JM0njhMUtvhxyrV6rIHInQijaurAZS2oNUMi5Xz29LVutEQO4GKL/blyfHdNQ0NJrNX8fkD84TeADAucPJgR/ujVzRoFLpX0SU/Z8hW/5H1F0Ry5UxJwXydZFHwHNlW0mAnhywLAnUIY/S+y/1BpwVv/eM+rPQoQFLCMjqSsiGgBeu0OOWz8IdATVRCKmEDlVZ52tAsh/YBGAAgI3hG9+88z3PCOgz8VtkjQGr9W+tDoD1UxoBRHaN/OF4tVJvTcaJOLp8Tq+MTuPVzluTvvWsvJ0dF5Gt92+NqZQnIcebISP8Y47bcO1nMv8thrP5K3/7tad/JzVgAE4RhADAxvBv/82v/vqnDh7+PlG3W5vnvi3BLnH+pzvR2a9ZxP059q8nfD35Sxe4N1nyeTlZyUlWZtSz+1pPap7sr/VvPJu3QgBaa/+4aVqueIlc+UcTvOXFYLe/NU6+f/R/wOPRn4H1M9sCmMj/zmhvQGvMTqKfPMd6/3LSjwSA9o9nX8XkDzYFeADAxnH9xp0X7o9HrxKtJ95SSpjLhAOySYAld7jE6gDoubO9KoCoj4GV7OdJDRef3ylp9EIC1rN656zx6xCFl6xoPYNu92sl9ekV/2TY0OWjaeea+3vDR+PPlfbp8xbo5Ac2DRgAYCN5/tabz/7Mhw/fIMpXADB64u+b+Z8p+ctO/J7Yj1f/r1/jqf7xMc/YsSjdU4cApO6/F9rgpj/62b38BG+cWeEi/fl5n6n3fckc8+L9+rxX4y/PPf3eAcr8wMYBAwBsLNIIIKoX/7Em/qwhkKnzJ/KFfuS+nMSkCJAsDcwk/VnPVtrm9y7VyFv3KeUAWNcybBSUcha0NLE2GDgh0CoV9PC6/kUTfqaXRCYkoEGZH9hkkAMANpbv3vjc7ff2x08S2aEA+VNSWhl3r2/C/QgriU+f5zJAmeBHRMtta6XPeMlwLAssr5eldvxavo5/8nvpUjnLKyBzACST4aCj36+ffzJsZ/7r8fE/3bhI5ijIyV+v6iP4OzGazZalffqcpyyp359j/HKVzyt767g0DB5/MMHkDzYaGABgo3ntW1/44Xv74ycff3j8A/4jbSUESqL4uIWW/eUEwKwh0BG6UWPy2v0ycmLeP56abm9r1asNB66T52cezWbL2n8+LxMD9f1L9+NnGU8fJfI90gCQan+e5K/cb6kFCiONKx147Gzg6FyGvencHLN+lgNhbFn6Efq7Y36XxKQuJ37eX3wmi2P3x6PludFs/joa+oBNBwYA2Hhe+9YXfvhPP/WRf8VGgF7VWViuf6Jy4p9u9qONA/d+03lrMly+36P90ayrhy+FgKztqFpBZ9XL94xc/5ZIEL+Of+rJlfd1eEN7CCxPCxsKeqyyGkDfh8dufTbyc9PjJmpP+tJY1NtWmGBvOm9N8Itn7v6JtPICxtPZUt1vNJu//tl37l/D5A82HRgA4EIgjYB13ysKCfDKX/7LEGXFy4lSu9StCVePVZ+3whqy7E9Ojtr1L9+D8SZahkMVnqfDCnvo8VrbPO5SiMbyiOjPjcccufYj2CjQbny9+pfHtQ7AYlyY/MHFAUmA4MLxuy/+1ffff2x0tXRdTfZ/pttf5zVK8c6a/CPdfblvIV34HBrwx2+XBmbUBb1nkses8j+rEqDUp8Dal+OV6LF7ZZEWlu5/VknSa/crsUR/oO4HLhrwAIALx//x+//jZ/+bw8lflK7LJgGurl+t/qXrPwoD6IlSr/r3J9PWNbxyHU/nrcnMi8Nbq3oie1Wt5XTl9fL1pfi5t6LXxkHnOicEoMcmQxtWKMAbmxQB0kmMVoa/xhKU0hP7ZNiE4SW54j9qGkz+4EIDDwC4sHzjm3e+9/b+eCkd7K0uI6xWv3K7tgyQj2k8TwBRt4Y9K21rudO1a19m0XsT/+F4SONHiXWtfAFj5b+8l/IAyGOe0RWt9r0eBdqYsT4XPm65+/W5+3vDsLa/NV5DB8AqBZwPBpj8wYUEHgBwYfm3/+ZXf116AryVZCnmT9R2+evJ3/IA6Fi4zohv3UOUAvK+XL3yBKcnf7lStlb8Wt5XJv8RrUII+n31SponeSn242n7R5oAXBrIgkDeeGXWv4QNFikDzBUB8vNhtHdDuvtlUqA0DC4fTTuVJK2xBrX+8ji7/meDwSuY/MFFBR4AcOHRngBJNg8g0+inhNYD8NrnWnkApVV/KXYuV9C86td5AKn7KPU/T+NAr/71GLNegJJQk/ysvC5/nvqfpG8nQK3yJ0FTH3DRgQcAXHi0J4CxVs/da1YTf7bkj6jrAYg4bho6HA87qoA6+56oXcYn4/16MpUTnicBrN8n8yycu8Dvb8X7rclfjsNSI2Rvhj7O3g/PSyPHfmkyDT0AFhnhKA9d7y8rBDD5g20AHgCwNbAnwFtRrhLQ/Li/JpsHQBQ3xsnE9K2EvY48b6D535IcrpDR9aSHPZljme0v961+BRZWSEBSqozISAFLLIW/qqZSKhcAMX+wLcADALaGf3x8/18//vD4B14i4GriMWL6Trzfav3rxfut4zpjXf4jamfly2t538JbVev8Aamkp4V0NMt8hPFKm1/2KpDGQOvzlZK/hmGi8xi8agA9Fk+QyPpMrAlfi/54k7ysBJDyvlbN/2TYYPIHWwU8AGDr+N0X/+r7P9kfXyWyEwN1mZ88ppUAs3oAmUoATWk1vhqbX0svt3nFz3CjnUgLIBqLl+Wvt3lfegI8PQArUdH6TCJviPUZRat+Kx/Aw2vxO57OMPmDrQMeALB1/NNPfeRfPXE4+QGR9gD4Wf1W3b+1+pfbNZUAlsIeUXcClNr9q/GsJnsvqVGu+CfNoDP5W54Ib0wW1uTfCQ9UuP7lCl82ACopI8rriFYNf/SqXxJ5APS1MsOf94ng9gfbCQwAsHWwbDAbAYyc5HXZn64CMI0EJ7OfE+e0Nn7kdrdK2rjufTWursCPxFL/0+/NEz2X18kSQGkIWFiCQFbyX+d16hmkR4BL+/Rz6BJF/blIZGOf46Zx4/hWzD/TAGjxrG2Fv8++c/+a/8QAXEwQAgBby7Wbd69cOjp+y4ozexN+jQSwhidHnly90r+MHHCU7Od1O7TEhqwJ3nOvW6EMHn+rzW8QCtBj7XxGwXjluDVeGaPc91pGM5Y88OKZ2pr+cvJ/4uCI/sXBEbr6ga0EHgCwtbz2rS/88GBv9KQtUWsLAFloV7+14pc185HUrkzSszwE7Mb31PL0cSmq45UXZkvnSpM/X9MJfTSDljdEj1d+/l7Znw5HsMeCaLXSt8Yt92UI4NJkulzxW6v+o5YnZ7Z8ncz2v3w0xeQPthoYAGCrYSPAO69d/Z7rX2/L7Hgiaq34mcPxkA7Hw47bfXEfv65ft+r1uunJ5D8ZPpBuc/leocfBqGiInlfCLX+t8kttxEhtg2j1z4YCUXsl72n/y/2j4aAjGuS5+ifDZtkGWBsFT31wiMkfbDUwAMDW89q3vvDDDz8y/qJ1Tsf7a2r+pTdAnyNalNGxBLBV0ia35eRsrZK9iZ9o1SnQqqeXYkB6lS07Fpaed3lvpxEQj0saAtJjYXkD+N5RnwI94WvFP0bH+K28AGkQaONAhgAmw4Z+9sMHX8TkD7YdGABgJ/jujc/d/umDo/9FH5cdAD08OVxTDU/kAciKADnJWc15ZGig1DFPK/yxB0C+l9b714mB1rPI57USACfDAR2MF0bF0iPQ2HkDfE4/j1zZE9keCv2ZjGazTjzf0/PXx7UegI7/a73/8XRG+8ezr373xudumw8FwBaBJECwU/zKH/3db372Jx/+Se3Kn8hOgOPjkuOmaYnoyONEZTU7r+4/6qbXurfqAOjd1/JmWD8Z73mtsVs/l8mRQfMi77OKPjM9setEQL0dqf+N5vTVv/6tX/xT9wEB2CJgAICd45f/+O//8Jd+cu+3s9dHE34k/yuvkZUARN3JuCQAFPUziBroyGM1DYEymf7ma41mP3r8LFOsmyHJ4yVFRC+jX+NN+rrOn4hoNhhA3x/sFAgBgJ3jb7/29O985sMHf8ENgKImQLoEjolWw9oFfzhuu72tCbi1Mjfq/uX2cdN0YuqWwl8pc55zD8wyPqfyISLqBSDHqUMWOjEw0gSQ6NW9FgKS57Ui4OWjaSvuj8kf7CIwAMBO8o+P7//rlVqg/2tgxfytYzqhTsfbrRWt163PKpuT57TinzVxlhT1ZFKgfgavA2Do4TDEfWTsXz6rZ6Bow0Qe09uM9ABYsr/evvQGjGbz1zH5g10EBgDYSVgtkMgu/dNIN7jVCphb6Hr6+taKV6vzEbUb5kyagVkSGHkPNJbhYRkGVjUDH5c/9Ws4IVB7JHTOQiQTnBUDYvREb+3zTx3/16GCS5MpQeUP7CrIAQA7zbWbd6/QbP5WdI0XBtDoyVbH3DNxfyI7jq5j/CVp4ZTaoJroo/2ISTOgS5NZRwtAPoPGSvLT5+R5K4Pfa/jjJfpZx66+e4Baf7CzwAMAdprXvvWFHz7YG5oaAYyV+c/bXuzdS8CzBHAszX+dRCdX0dorsByPkQ9gjYfHKtUMtcJhq/2v4wVgb8WlyWxZHqg9ATr5T4oVaSxNAP0ssvEPhwoyGgDytQxq/cGuAwMA7DzfvfG52//xk5e/ap2zKgDkRKjld63SO7kvZXvlMfmTyK4AYPf/4Wi4fB+GS//kPXlc8ief1xOr5eFwewOoBj8H49VzaE+FHKd+nWUEeF4RS9efP2/PI2DpBBwNBzQZNjSaE2r9wc4DAwAAIvrr3/rFP/3Mhw/+wjoXyeAStZPuLEGejNKd3Nc6AHJi5bwBWS6nvQWl3ANdlWC1MZYGgX5+HevXMX6e6PlZtJGk8xiiFb/+XC1DgCf7UryfGc7mr6DWHwDkAADQ4ndf/Kvv/9Plx656tfBebFwf1zH4w9FwKdnL6FW+J6BDFLcC1uI/RAtD4YPHRsuJfDSb0eF4GJbyaREgPlYi6lJYEjDSGgA81kj0h7E6/3mTPjMfDF7/m689/WvFhwJgB4AHAADBsjJAxL3lthUbJ7InSrny1R37iKjlCveS5SwZYD35M/L9D0dD2p9M22N4FDeXY2MdAC8BsCVJ7BgP0s2vQxO6jNEq+eP7WM8hryFa1fvrOL/XAljLAiPjH4AVMAAAEMikQOn6lnX+2ZCA3l6+XiX9/f/t3U+oXPd1wPEzf/3eE0ZJaSFxaGwUpXHBqO7CdGEX3IQuAqWLbrpwN4GIkpo0DZSqoFU3pQmFYBVXi3jj5VuaFq8DVgyuwWnrxnVSq1EJKBCUSFakN09v5t7bxejcd+6553dnJL35e78fMDNzZ57eHYH1+/3O7/zO0WvRcblUBUC736+r/1kZ9fa1fg+7HeDzHOzxvqbvK1LPQdDfYRMW7XZAqndBdN+p7QKReu3/1ERARORTB/dI+gMMJgCA45MCbWa8dvez7/nnsxLwdFCMQvw+US5KDNSIgtJVti8ElCpK5PkaALOOAEZtfu17s/gBP4pKHPU6tSiAJv7pez7sH0UENEeApD+gjgkAEHj35bOvnbk1+tdZe+BRvXyb+JdKhBM5Dv2Xf5aJAviCQCLHEwb9M5Vd+TcV1UklI6aqAJaFfrrV7YGmY36WjQrY9/zJiChqMXRHLO1z/15UBlhr/YuIHPa7JP0BAZIAgQappEBrkBUyGkz33EeDepObqOiND3mnkuf8BCElqvhnf6dIfKzPX2vqfVBpAZxIUJwVAfCNgPz9RvdtpTr7pZr+kPQHpBEBABpoUqCINCYAajKdrbEvEg/MUUEgf7ROz/qL1Nvm+hB66rmIlBOS1AQmVQFwnsHfRyuijoT2+/nvHe392+iAL+kb7e83Df4k/QHNmAAADfYvnrv+mTuHL0UV8kTizHi/p+3D83Yv3/JNc7TZj75n//yofkB0H7vjLFxJixyH/n2fgyhK4Ff7duDfG+eV91KJjz7sn/q7ShUC8gl/9jQASX/Ag2MLAJjD71y++srnbt79S7/XryV1UzUAUiF/kXr73KZ2uj5sbqV+R3QSIbUd4EP/lUTEIHIQ3XtUCVATHmcV/4m2Spr43gB+9U97X2A2JgDAnP7s735QjM0xQGUHsN1xJuNevWOfquzJz9jrjxLtInNPOO6fYqgUI5oj69/el7/fqGRxauvC319q0pLa+09VARQRuTvsyamjTI56Hfb9gTmxBQDMadzvfSZa6dvnOvjbErZ+31vpYGpXyX5v3RbSadrr12tNq2cd/FORhEjUAMg+9ycWoomBSP3EQ3RM0X6v1JG+VNOfQZaXz9n3B+ZDBAB4AM+9+tFXP/2rw+/6jH+R6qDsB8BItPKPBlAtI5yqAJgSnjZI7PGLVAd7bfAjEtci0MfU1kRT9CLaCjgY9MrVvL3vqNWvSL3j3zAr5O6wJ7uT/DxH/oD5MAEAHtBf/807//LjXzv1R0177LP2tKPQuUi9Xr79jO6p20E39fvseynRwD+z7sEc2xUPk5PQpKm6H/v+wMNjCwB4QD89vfvn9rifP/r3IFKRgmhy0LSdoO/r9SjU7zv72ZMNei1SJgfO2O/3pYDtNkjTtkPTiYZUa1/f9GdvnAmDP/BgmAAAD2j/4rnrWa/7vEh1sPLNd/T9aGIQFfyJVv9N5/394GoH/Sgi4Bsblb9Hz/67in/qYGB6FejPu3bF82rKXYg+YzP9U50ARUR+/XD8/Nw3AUBE2AIAHtpzr3701d/8+OC7DxJ6T634o2N0nm+Zq7/Lr6BTlfWixj/l75/jFIC9171xXikOpPeX2vNPVUfUe/P3nMr6F6lXAewXwr4/8BCIAAAP6d2Xz7722duHP7bXZmXZR/vnflIQPddiOiKS3HLQa76Sn75n6Wd8xT9/b145UenVGwJF32NWPoDem98mSB35syt/PfLH4A88HCYAwCP42eM7fxCV+k1NAvyg74/SRe2A/SBqIw7R4Lo7ziqDeaXk8P1tgKiCoc0LiHIQ7JHEVCTDfiY6ITBr8hLxhX5sTgBH/oCHxxYA8IjsVsC8Fe2atgJE6qVym/bJ9fpo0KuVK9biP/pe+XsSTX/muVd7j3q+P4oY2COLqb+LqChQdAzQJ/0Ns0LybofQP/AImAAAJ+Cv/vbffvS/n9j7LXvNru53J1kZxo866c1b7U+knjU/a49dpH7kL2r2kyr5m1rp23a/TfecKvpjP5Oq5+/f0+f3+l2q/QGPiC0A4AT85JN7X/FZ+bZxjg50fo981O/NVTRIpBry99sN/pqyA78d/KOtAFv8R6R+7M8O9lq90Eqt8Ad50Zgg2c/zShEgkWr1Pzv46yOhf+DRMQEATsAbF555+6en986LxEltdgD1kQGb6OcnAjaRTt+zEwHfTU/p693x8UCdCvXrhEC7+tnf7Z/b1r++q2F0BFJ/pumkRKowkI8KlJOEQs7T5Q94dGwBACco2goQqecDzGqoo+x2wTyh/uTvc3v+81T/a+oCaO9l1jbGrO0LkXgLwH8HGv0AJ4sIAHCCfvLJva+INFftm1ULQOR45e+TAv1z/V36aH9fqsKfPwGQOhlQO+d//3SAhvR9VGCeIj/+O2iBH78FIDLtD2ANs4LQP3CCiAAAJ0wbBqXeb2qr61fRqUz7eYrraOGf6MifSDU/IHoe3a9K3c+8vQmaohfRvj9Z/8DJYwIALMCzl6++debm3RdG/V54tt/XALCiwT2lqdufzeyPronEA74aZEUtMbDp6GLqO/j7bKr8l6oASOgfOHlsAQAL8OTt0QU9Kqf6eV4plOPp4KpHBucd/H2hnyjkH1UHDIsB2WTF3nGPAr0/mwCon/f34ycwqe9htyx00Pdn/nVCQOgfOHlMAIAFeOPCM29ff3znkt+7t1n/IsfRAH8t6qCnf9ZoUJ9E2AE+WvXrdfQuWwsAABGPSURBVJ/8V2sClNerAPpHfd9OZqJjjtG9+2sHg175XX3DH5Fpl7/DfvcSWf/AyWMLAFigL3/7h0WUJR9V1vPv2Sp6VnRszg74uv/fVOCn/F33f+ZgUD2CWGkTHNx3dG9a1+BBTifYa9He/944k+9/4wv8OwUsABEAYIF++xd3XrIr53kq/6WO/fkEOzuQ2vP+lm//myr+ozUA7IQgNfBHEQPdHvD1Cuyjfg+lg3w0ydGJAG1+gcVhZg0s2LOXr7712Y9HL0Q19XXV7MvqRkl0Orjefqwvu+MsmVgXbQX40r92xd8UIWgqBWyLEdnVv9fUA0D5JEAS/4DFIwIALJgmsKVaAevgHw20vsTvuNspB3+7wh4Neo17/ZYm99nXfmUvMh3kU1n/qQqEep/R89RnRKrtf0n8A5aDCQCwYPsXz13/v9O7l3zovFyxm0iAhtP1JEBTMqB9rYN+06kBvw1gJwo2jK+f0WJG/r/UvaQy/fVRE/1SbA4AiX/A4rEFACzJn/z9fxa/Gg5kd5JVwuVNtQBSVf+00p+G7/2WgEj9zH/KrC6AszoXRtsYPqlP7z2KCPiWv6fvTeR733yaf5uABSMCACzJUx+PXtJVtbIrf5/Yp3yXQaWJf4OsCI8Gihwn+aWqAYpI7Sig3pd9bmsA1H7+/paAHgvU77AXJCb6CICdJOjj6aMJiX/AEjDLBpbo2ctX3/r0rw5f0NepVXVU5EevNx2zs6KVfyoiMOvYn2VX+zoxiI4mzioHLFJvAnSv3yXxD1gSIgDAEn3hl3f/1CcDRqtq2/LXJgHaR5HpIB8l5PmOf7rf39QSuPysG/RH/V7lPm0UQ1f9qXbESr+HRgBsBUAtAHTU65D4BywREwBgiTQhUKQeZldNWwH2UUTC44Ai1SOAURvgWsg/q57zt90ItZxxqjthdM+p3AVd7WunPxsByDsdEv+AJWICACzZ07+8+y2RanJdVPzHSg2u/nmUCHgw6B4f9Ssr7OW1z+m9KN+FMGpQFLUi9uH+o169VXBU+1//XgAsBxMAYMn2L567fuPUY+ftKltkOvhGbX3tdoBei5S1/e//p6v6sspfnq4NIBJXJ/QnALSfgTXpditJjH6w3xtnjccTh1kh/ULOs/oHlosJALACZ24dvGkL6uhEQCcBes0OqDpop5oBDbJCdsdZLeM/KhDk8wNSrYl9fQC7/6+Dvl6LogIi03B/VALY5gO8+/LZ1+b9uwNwMpgAACugUQC/qvcDsG/1m6Lv+QRBr8z0N/kBlbLALi8h6mOgK34d9H0bYJ+sOHT3XWv52++dT34xAAvDBABYkXdfPvuaVvwTqVYH9GF2r2kbQPnVvj3mp/kATT0A7GTEvtZCRqmufvb+otwATfwbZoXc63evsPoHVoMJALBCZ2/efUkHRltIx4bU9ZoaZEVZCVBEKgN51ADID/J74zx5AsG/9gmKep++MFGqMZF9L6oB8OTt0YXU3w2AxaIQELBitjjQrAI/s4oApcr/aqh/b5yHn/HJfr6zX1PXvwe9Z40AUPQHWC0iAMCKPXl7dCEKnVtNWfQ2819fW2VUID8e9LVEcOVzwZE/35xI3/P7/v5e7bUDl7SoOQGs/oHVIgIArAGNAkQldT1dwetAbFf0TW2AK3+Gaz9sTwH45D993/ODv1/l7wUNitRhv3vpP772uW8kbxDAwhEBANaARgGievr2UeR4RV8mD7p9f58TUB7zy9L7/va6T/6L+HoA9n77eS7DrKhNCOxziv4Aq0cEAFgTs3IBov3/SnlfdwLAJwZ6OrjvjfPyKKCPDOjn7OTENwBqSgCMsPoH1gMRAGBN6J54agC1mf/Krvr1tUh1MhAl+4kc7+9rPoAN/+t/ejKhcg8NtQpSpYytp26P9hs/AGApiAAAa8TmAkR8Bn/U6EfZAj8p0WkAu8LXtr8i8eAeHRNMRQGOeh0pOh0y/4E1QQQAWCM+F6CJXf3biUB5La+W+40qCWqTIBGpJQD6sr+eRgN8/f+DQS+8/71xRuY/sEaIAABrxuYCiDSfs48q/+mgnlr9z3sCQETCc//+vnTFr4+2xa/IcQIgq39gvRABANaMrQug7ADsz9mL1EP5TaH/VOW/1M9EzYl80yL7qIO/Dvyc+wfWExEAYA09e/nqW79x9+iFec76p7r/jbudsvKff21D+9GZ/6gzoOePLaYiACJC1T9gDREBANbQF6/duGxfR218/YkA39zHVv7T18r2A/DbAfZRV/vK7vdHyX7R4E/Nf2A9EQEA1pRGAew1O+hGNf2jY4ARmwcQRQNE0pX++nkuB4Oe7I2zyudSEQFW/8B6IgIArCkfBbDV/1JmDfwiZpJw/6x/6s+MEv/0mh38/aNuA+gjq39gPREBANbYl7/9w8IO0FHlv1T3v+h8vxXt8fucAP+ZaJWvz5WNUrD6B9YXEQBgjd049dh53wfAPo+KAtXKALukPj+oa0XAVClgZcP6fsUvchwdsN3/Bnnx+sN/ewCLxAQAWGNnbh28aff8oxK/tsiPX/k31fi3g/6o3yu3A1LZ/36fP9W62CYBvvvy2dce6osDWDgmAMAa27947vrPTw0vidQT/KLuf7WtgCDD3yb/6cRgd5JVzvaLiIz6vUpoP5UUqCt+3fMXmU4KDvvdS4/8FwBgYZgAAGvu6V/e/VbU6S/VAKhWF+D+IB9NBtSo36s1/rEFh/zgb58Ps+OJwzArygRAWv4C640JALDm9i+eu35rZ3DFFwNKHfk7GKTD+JaNBOhg72sD+BMCuuev9f7tROCoN/1zhlkhh/3upf2L564//LcGsGhMAIAN8OTt0YVUxT/Pr/b3xtNB2tf4jxr9aLRAw//RPr8O8joREJlODPSaCC1/gU3AMUBgQ/zxP/xXcfuxfrIUcDQhSGX1RycBNAmwqfGPF5X/5egfsBmIAAAb4meP75zX5/40gN8WEIlr+mvin0g1UjDq98okQJ/4J1LP+I/O/4tMtwE4+gdsBiIAwAb5w3/878LnAsxa+dvP2EmBL96jogI/Ud1/Tz/zztc/z78rwAYgAgBskJ+fGl6KugJ6lX39XrUAkA3163+pyYDfDmgqDzzpdjn6B2wQJgDABtGjdToJOBhU/xf2df5tyL/8jDvvb19H2f+2AJCPAtgcAHt/ANYfoTpgw2iXQI0CaLW/JqN+rzzm53MD7HHAVPhfXzdtBZD8B2wWIgDAhhnkxeu28p8e84voIG8Hf5HjKn9a+td+Lhrgbe3/fp6XZ/51ckDyH7B5iAAAG0iTAVWtAZBLDIxOBIhU6wGkwvvRa9v4RysBfv8bX+DfE2CDEAEANpD2B1CpokCpHAD7/qTbLfsB+MTApnLAWvznqNeRO8M+yX/AhmECAGygp26P9m0HQBGT5W9OCNhWv55uAfTzvDJR8Kt8/zP2UQsAUfkP2DyE7IAN9eVv/7AYDY4b+Iy703yAca8zd6KfarpmH496HdkbZ5WtAZL/gM1EBADYUDdOPXbevh7kJg8gr0YA7Ap/d5KF+/0qqv6n1/zgf/93kPwHbCAmAMCGOnPr4M2m9/3+v50M7E6yynWR+NhfdO3I5RvMug8A64ktAGCDPXv56lufOBy/4K/rSQA/ARCRZNa/air442sEEP4HNhcRAGCDffHajcv63K747eAfbQNo9T8b5o8a/PhSwTYqIDJtU7zI7wdgcYgAABvuxe98WKb4+6Q/e00kzvAf5IWM+sfJhLuTLIwSRJEBGv8Am4sIALDhbu4MLolMw/52tW/5s/5+gmAjAKnjgP41jX+AzcYEANhwX7p24x0Rqe35i0xL/mq4X7cAtPyvD+eLSJkc2NQGWHMBOPsPbDbCd8AWeP6VHxW+2I9PBGyqBRA1+olyAkSkrAVA6V9gsxEBALaALcVrEwGtUb9X7vX7oj8+y18kfUpgmBWU/gW2ABMAYAt86dqNdzTEb1f69rWIVM7/2y0AO/jbfIAUwv/A5iOEB2yJaBtg1O9Vkv70tUjzPr/IcZ1/ZX+O7H9g8xEBALaED8trdr8a9XuyO8nKkwK60tfJgV/5742z8rrI8YSB7H9gOzABALbEMC/e17C/D/3rZEDfs+f+7UQhqvZnowOTbpfwP7AlCOMBW8RuA0S1AJr29qPufyL1LQLC/8B2IAIAbJG7w/4V+9rnBIgcJ//Z/5rY9wn/A9uDCQCwRQZ58bpd+WshIN3zF5HwMSr5G0ULhnnx/iLvH8DyMAEAtohtzZvaChCpDvp+3z91IkBE5N2Xz7528ncNYBWYAABbZP/iuet2G0Cz/n1SoA76vttfqivg3jiTe/1uZXsBwGZjAgBsGd0G8Bn/tslPVAlQ34siAPebCb2+4FsHsERMAIAt88Sdww/sa13hp7L6bWTgyJUPthMFu70AYPNxnAfYQi9+58PC7v37Vr7+WtNJAJr/ANuJCACwhW7uDMrjejq4706ymUf+ROqnBETqVQYBbL7+qm8AwMkb5sX7mvynA3nUB8A/19fTrYDp9WFWSN4Vjv8BW4YIALCFztw6eDM6/hdtBUTd/2wTIP3zFnCbAFaIPT1gSz17+epbp44mL/hz/j4KoF3/fC6AXr/X717596997veX/w0ALBIRAGBLFSLvRWf/vb1xVqn+18/zymmAQuS9pdwwgKViAgBsqaduj/bn2QawRwT1+TArym0Auv8B24ktAGCLPf/Kjyqb+YO8KAsD+WgA3f+AdiECAGwxLQusA7pGBPzq/2AwnRQc9TqVrQLK/wLbiwkAsMVs+V4d7P0JAJFpHoClRwEp/wtsLyYAwBZ74s7hB9HRP5F4QuCP//mywgC2B4WAgC22M8mv+SOAqWY/euxP7Y0zeePCM28v7WYBLBURAGCLaXvgVOhf5Dg/YJgV5fG/o15HbFthANuHCQCw5QqR93xHQHvm39b+txEAzv8D240JALDlhnnxvh3wReotgms/kxWc/we2HBMAYMuduXXwZlQKWNmogLUzya8t5QYBrAQFPoAWePE7HxbjbieZCOiv7U4y+d43n+bfB2CLEQEAWuDWzuCKHfz9/v9xC+DpZODmzuDSKu8XwOIxAQBaYJAXr9vBX/f/fUdAkelkYJgX76/yfgEsHhMAoAW0IFAqAkABIKB92OMDWsI2Bkpl/+s2wA/+4iz/NgBbjggA0BJaEMgP/jroi0wjAUWnQwEgoAWYAAAtoQWB/DHAvXFWmQRQAAhoByYAQEtoQSBfC8BHBEgABNqBCQDQEprYZxMBRaTWBIgEQKAdmAAALaGdAVOV/3QbgA6AQDswAQBaYv/iuetR9r+u/odZIbuTbNm3BWBFmAAALXKv371y1OvIUa8jPiGwn+dya2fACQCgJZgAAC1SiLw3zAoZZkWtG+Ck25VBXry+wtsDsERMAIAWSWX422OAANqBCQDQIqkMf80DOHPr4M2l3hCAlWHaD7TM7/3T/1QK/x/1OrI3zuRg0KMEMNAiRACAlvGZ/sOskINBjxLAQMswAQBa5ubO4JKI1LoBUgIYaJf+qm8AwPJNk/665XPfDhjA9mMCALTMMC/en3Tqmf/0AADahS0AoGWeuHP4gdYC0JV/P8/pAQC0DBMAoIXs6l+LAu1M8muruyMAy8aRH6CFoqOAHAEE2oUcAKCF+nkuB4Ne+fr0vckK7wbAKrAFALTQ3WH/is0BoAkQ0D5MAIAW8mf+qQEAtA9bAECLaQ2AvCscAQRahggA0EJ65n+YFXQCBFqKCQDQQk/cOfzgqNcpIwDUAADahwkA0EL+zD81AID2IfYHtNTv/vNHhch0G+Cdr3+efwuAliECALScdgQE0C5MAICWOn1vIsOskLvDPjUAgBZiAgC0FMV/gHZjAgC0HEWAgHZiAgC0FAM/0G5MAIAWO+p1yqJAANqFCQDQUgz8QLvRCwBosWFWyKcO7lEFEGghIgBAS2k5YADtxAQAaDnKAAPtxAQAaCkd+Pcvnru+4lsBAADL9NyrH3111fcAAAAAYEn+H8iYdEz6fbB4AAAAAElFTkSuQmCC;" parent="r4U9AMSot-IcRnKY342J-83" vertex="1">
          <mxGeometry x="11.723027375201289" y="9.995163630501372" width="29.985490891504114" height="29.985490891504114" as="geometry" />
        </mxCell>
        <mxCell id="r4U9AMSot-IcRnKY342J-82" value="&lt;font style=&quot;font-size: 20px;&quot;&gt;Gemini API&lt;/font&gt;" style="text;strokeColor=none;align=center;fillColor=none;html=1;verticalAlign=middle;whiteSpace=wrap;rounded=0;" parent="r4U9AMSot-IcRnKY342J-83" vertex="1">
          <mxGeometry x="55.09822866344606" y="4.997581815250686" width="128.9533011272142" height="29.985490891504114" as="geometry" />
        </mxCell>
        <mxCell id="b44mch5LtKIrPGPqQeBs-3" value="" style="shape=image;verticalLabelPosition=bottom;labelBackgroundColor=default;verticalAlign=top;aspect=fixed;imageAspect=0;image=https://s3.dualstack.us-east-2.amazonaws.com/pythondotorg-assets/media/community/logos/python-logo-only.png;" parent="r4U9AMSot-IcRnKY342J-83" vertex="1">
          <mxGeometry x="285.57193236714966" y="9.997381911977982" width="42.27" height="51.23" as="geometry" />
        </mxCell>
        <mxCell id="r4U9AMSot-IcRnKY342J-104" value="" style="strokeColor=#dddddd;shadow=1;strokeWidth=1;rounded=1;absoluteArcSize=1;arcSize=2;" parent="qgEVVQASvOo5EFohjT_f-6" vertex="1">
          <mxGeometry x="117.23027375201289" y="69.9661454135096" width="410.30595813204513" height="59.97098178300823" as="geometry" />
        </mxCell>
        <mxCell id="r4U9AMSot-IcRnKY342J-105" value="&lt;font style=&quot;font-size: 18px;&quot;&gt;&lt;font style=&quot;font-size: 18px;&quot; color=&quot;#000000&quot;&gt;(Firebase Authentication trigger)&amp;nbsp;&lt;/font&gt;&lt;br&gt;Cloud Run Functions&lt;/font&gt;" style="editableCssRules=.*;html=1;fontColor=#999999;shape=image;verticalLabelPosition=middle;labelBackgroundColor=#ffffff;verticalAlign=middle;labelPosition=right;align=left;spacingLeft=20;part=1;points=[];imageAspect=0;image=data:image/svg+xml,PHN2ZyB4bWxucz0iaHR0cDovL3d3dy53My5vcmcvMjAwMC9zdmciIHhtbG5zOnY9Imh0dHBzOi8vdmVjdGEuaW8vbmFubyIgd2lkdGg9IjIwIiBoZWlnaHQ9IjE5Ljk4OTk5OTc3MTExODE2NCIgdmlld0JveD0iMCAwIDIwIDE5Ljk4OTk5OTc3MTExODE2NCI+JiN4YTsJPHN0eWxlIHR5cGU9InRleHQvY3NzIj4mI3hhOwkuc3Qwe2ZpbGw6IzQyODVmNDt9JiN4YTsJLnN0MXtmaWxsOiM2NjlkZjY7fSYjeGE7CS5zdDJ7ZmlsbDojYWVjYmZhO30mI3hhOwk8L3N0eWxlPiYjeGE7CTxwYXRoIGNsYXNzPSJzdDEiIGQ9Ik0zIDMuOTlMMCA2LjQydjcuMTNsMyAyLjQ0eiIvPiYjeGE7CTxwYXRoIGNsYXNzPSJzdDAiIGQ9Ik0zIDMuOTlsLTMgNCAzLTJ6bS0zIDhsMyA0di0yeiIvPiYjeGE7CTxwYXRoIGNsYXNzPSJzdDIiIGQ9Ik0wIDE1Ljk5bDQgNCAyLTItNi02em0uMDEtOEw1Ljk5IDJsLTItMkwwIDMuOTl6Ii8+JiN4YTsJPHBhdGggY2xhc3M9InN0MSIgZD0iTTE3IDE2bDMtMi40MlY2LjQ0TDE3IDR6Ii8+JiN4YTsJPHBhdGggY2xhc3M9InN0MCIgZD0iTTE3IDE2bDMtNC0zIDJ6bTMtOGwtMy00djJ6Ii8+JiN4YTsJPGcgY2xhc3M9InN0MiI+JiN4YTsJCTxwYXRoIGQ9Ik0yMCA0bC00LTQtMiAyIDYgNnptLS4wMSA4bC01Ljk4IDUuOTkgMiAyTDIwIDE2eiIvPiYjeGE7CQk8Y2lyY2xlIGN4PSI2IiBjeT0iOS45OSIgcj0iMSIvPiYjeGE7CQk8Y2lyY2xlIGN4PSIxMCIgY3k9IjkuOTkiIHI9IjEiLz4mI3hhOwkJPGNpcmNsZSBjeD0iMTMuOTkiIGN5PSI5Ljk5IiByPSIxIi8+JiN4YTsJPC9nPiYjeGE7PC9zdmc+;" parent="r4U9AMSot-IcRnKY342J-104" vertex="1">
          <mxGeometry width="30" height="24" relative="1" as="geometry">
            <mxPoint x="15" y="18" as="offset" />
          </mxGeometry>
        </mxCell>
        <mxCell id="b44mch5LtKIrPGPqQeBs-2" value="" style="shape=image;verticalLabelPosition=bottom;labelBackgroundColor=default;verticalAlign=top;aspect=fixed;imageAspect=0;image=https://s3.dualstack.us-east-2.amazonaws.com/pythondotorg-assets/media/community/logos/python-logo-only.png;" parent="r4U9AMSot-IcRnKY342J-104" vertex="1">
          <mxGeometry x="352.77" y="4.419999999999959" width="42.27" height="51.23" as="geometry" />
        </mxCell>
        <mxCell id="r4U9AMSot-IcRnKY342J-110" value="" style="strokeColor=#dddddd;shadow=1;strokeWidth=1;rounded=1;absoluteArcSize=1;arcSize=2;" parent="qgEVVQASvOo5EFohjT_f-6" vertex="1">
          <mxGeometry x="117.23027375201289" y="449.7823633725617" width="410.30595813204513" height="59.97098178300823" as="geometry" />
        </mxCell>
        <mxCell id="r4U9AMSot-IcRnKY342J-111" value="&lt;font style=&quot;font-size: 18px;&quot;&gt;&lt;font style=&quot;font-size: 18px;&quot; color=&quot;#000000&quot;&gt;(Http trigger)&amp;nbsp;&lt;/font&gt;&lt;br&gt;Cloud Run Functions&lt;/font&gt;" style="editableCssRules=.*;html=1;fontColor=#999999;shape=image;verticalLabelPosition=middle;labelBackgroundColor=#ffffff;verticalAlign=middle;labelPosition=right;align=left;spacingLeft=20;part=1;points=[];imageAspect=0;image=data:image/svg+xml,PHN2ZyB4bWxucz0iaHR0cDovL3d3dy53My5vcmcvMjAwMC9zdmciIHhtbG5zOnY9Imh0dHBzOi8vdmVjdGEuaW8vbmFubyIgd2lkdGg9IjIwIiBoZWlnaHQ9IjE5Ljk4OTk5OTc3MTExODE2NCIgdmlld0JveD0iMCAwIDIwIDE5Ljk4OTk5OTc3MTExODE2NCI+JiN4YTsJPHN0eWxlIHR5cGU9InRleHQvY3NzIj4mI3hhOwkuc3Qwe2ZpbGw6IzQyODVmNDt9JiN4YTsJLnN0MXtmaWxsOiM2NjlkZjY7fSYjeGE7CS5zdDJ7ZmlsbDojYWVjYmZhO30mI3hhOwk8L3N0eWxlPiYjeGE7CTxwYXRoIGNsYXNzPSJzdDEiIGQ9Ik0zIDMuOTlMMCA2LjQydjcuMTNsMyAyLjQ0eiIvPiYjeGE7CTxwYXRoIGNsYXNzPSJzdDAiIGQ9Ik0zIDMuOTlsLTMgNCAzLTJ6bS0zIDhsMyA0di0yeiIvPiYjeGE7CTxwYXRoIGNsYXNzPSJzdDIiIGQ9Ik0wIDE1Ljk5bDQgNCAyLTItNi02em0uMDEtOEw1Ljk5IDJsLTItMkwwIDMuOTl6Ii8+JiN4YTsJPHBhdGggY2xhc3M9InN0MSIgZD0iTTE3IDE2bDMtMi40MlY2LjQ0TDE3IDR6Ii8+JiN4YTsJPHBhdGggY2xhc3M9InN0MCIgZD0iTTE3IDE2bDMtNC0zIDJ6bTMtOGwtMy00djJ6Ii8+JiN4YTsJPGcgY2xhc3M9InN0MiI+JiN4YTsJCTxwYXRoIGQ9Ik0yMCA0bC00LTQtMiAyIDYgNnptLS4wMSA4bC01Ljk4IDUuOTkgMiAyTDIwIDE2eiIvPiYjeGE7CQk8Y2lyY2xlIGN4PSI2IiBjeT0iOS45OSIgcj0iMSIvPiYjeGE7CQk8Y2lyY2xlIGN4PSIxMCIgY3k9IjkuOTkiIHI9IjEiLz4mI3hhOwkJPGNpcmNsZSBjeD0iMTMuOTkiIGN5PSI5Ljk5IiByPSIxIi8+JiN4YTsJPC9nPiYjeGE7PC9zdmc+;" parent="r4U9AMSot-IcRnKY342J-110" vertex="1">
          <mxGeometry width="30" height="24" relative="1" as="geometry">
            <mxPoint x="15" y="18" as="offset" />
          </mxGeometry>
        </mxCell>
        <mxCell id="r4U9AMSot-IcRnKY342J-131" value="" style="fontSize=12;html=1;endArrow=blockThin;endFill=1;rounded=0;strokeWidth=4;dashed=1;strokeColor=#4284F3;exitX=1;exitY=0.5;exitDx=0;exitDy=0;edgeStyle=orthogonalEdgeStyle;entryX=0;entryY=0.5;entryDx=0;entryDy=0;startArrow=classic;startFill=1;" parent="qgEVVQASvOo5EFohjT_f-6" source="r4U9AMSot-IcRnKY342J-110" target="r4U9AMSot-IcRnKY342J-69" edge="1">
          <mxGeometry width="100" relative="1" as="geometry">
            <mxPoint x="159.9999999999999" y="659.9999999999999" as="sourcePoint" />
            <mxPoint x="927" y="904.5999999999999" as="targetPoint" />
          </mxGeometry>
        </mxCell>
        <mxCell id="r4U9AMSot-IcRnKY342J-133" value="&lt;span style=&quot;font-size: 18px;&quot;&gt;生成AIによるレシピデータの追加&lt;/span&gt;" style="edgeLabel;html=1;align=center;verticalAlign=middle;resizable=0;points=[];" parent="qgEVVQASvOo5EFohjT_f-6" vertex="1" connectable="0">
          <mxGeometry x="-269.99693449834405" y="159.99915446664653" as="geometry">
            <mxPoint x="371" y="169" as="offset" />
          </mxGeometry>
        </mxCell>
        <mxCell id="r4U9AMSot-IcRnKY342J-97" value="" style="edgeStyle=orthogonalEdgeStyle;fontSize=12;html=1;endArrow=blockThin;endFill=1;rounded=0;strokeWidth=4;endSize=4;startSize=4;dashed=0;strokeColor=#4284F3;exitX=1;exitY=0.5;exitDx=0;exitDy=0;entryX=0;entryY=0.5;entryDx=0;entryDy=0;" parent="1" source="r4U9AMSot-IcRnKY342J-25" target="r4U9AMSot-IcRnKY342J-104" edge="1">
          <mxGeometry width="100" relative="1" as="geometry">
            <mxPoint x="590" y="410" as="sourcePoint" />
            <mxPoint x="720" y="505" as="targetPoint" />
          </mxGeometry>
        </mxCell>
        <mxCell id="r4U9AMSot-IcRnKY342J-112" value="" style="edgeStyle=orthogonalEdgeStyle;fontSize=12;html=1;endArrow=blockThin;endFill=1;rounded=0;strokeWidth=4;endSize=4;startSize=4;dashed=0;strokeColor=#4284F3;exitX=0.5;exitY=1;exitDx=0;exitDy=0;entryX=0.5;entryY=0;entryDx=0;entryDy=0;" parent="1" source="r4U9AMSot-IcRnKY342J-104" target="r4U9AMSot-IcRnKY342J-44" edge="1">
          <mxGeometry width="100" relative="1" as="geometry">
            <mxPoint x="710" y="530" as="sourcePoint" />
            <mxPoint x="840" y="640" as="targetPoint" />
          </mxGeometry>
        </mxCell>
        <mxCell id="r4U9AMSot-IcRnKY342J-101" value="&lt;font style=&quot;font-size: 18px;&quot;&gt;退会（ユーザ削除）&lt;/font&gt;" style="edgeLabel;html=1;align=center;verticalAlign=middle;resizable=0;points=[];" parent="1" vertex="1" connectable="0">
          <mxGeometry x="750.004998220387" y="250" as="geometry">
            <mxPoint y="29" as="offset" />
          </mxGeometry>
        </mxCell>
        <mxCell id="r4U9AMSot-IcRnKY342J-114" value="" style="fontSize=12;html=1;endArrow=blockThin;endFill=1;rounded=0;strokeWidth=4;dashed=0;strokeColor=#4284F3;entryX=0;entryY=0.5;entryDx=0;entryDy=0;edgeStyle=orthogonalEdgeStyle;" parent="1" target="r4U9AMSot-IcRnKY342J-44" edge="1">
          <mxGeometry width="100" relative="1" as="geometry">
            <mxPoint x="90" y="433" as="sourcePoint" />
            <mxPoint x="335.5" y="550" as="targetPoint" />
            <Array as="points">
              <mxPoint x="196" y="433" />
              <mxPoint x="196" y="550" />
            </Array>
          </mxGeometry>
        </mxCell>
        <mxCell id="r4U9AMSot-IcRnKY342J-116" value="&lt;span style=&quot;font-size: 18px;&quot;&gt;レシピデータ追加・編集・削除&lt;/span&gt;&lt;br&gt;&lt;font style=&quot;font-size: 14px;&quot;&gt;(※生成AIによるレシピデータの追加は別手順)&lt;/font&gt;" style="edgeLabel;html=1;align=center;verticalAlign=middle;resizable=0;points=[];" parent="1" vertex="1" connectable="0">
          <mxGeometry x="350.0015377469057" y="490" as="geometry" />
        </mxCell>
        <mxCell id="r4U9AMSot-IcRnKY342J-117" value="" style="fontSize=12;html=1;endArrow=blockThin;endFill=1;rounded=0;strokeWidth=4;dashed=0;strokeColor=#4284F3;entryX=0;entryY=0.5;entryDx=0;entryDy=0;exitX=0.544;exitY=1.027;exitDx=0;exitDy=0;exitPerimeter=0;edgeStyle=orthogonalEdgeStyle;" parent="1" target="r4U9AMSot-IcRnKY342J-110" edge="1">
          <mxGeometry width="100" relative="1" as="geometry">
            <mxPoint x="89.99999999999986" y="435.39999999999986" as="sourcePoint" />
            <mxPoint x="835.6" y="680" as="targetPoint" />
            <Array as="points">
              <mxPoint x="196" y="435" />
              <mxPoint x="196" y="680" />
            </Array>
          </mxGeometry>
        </mxCell>
        <mxCell id="r4U9AMSot-IcRnKY342J-128" value="&lt;span style=&quot;font-size: 18px;&quot;&gt;URLデータのみを送信し，生成AIによるレシピデータの作成&lt;/span&gt;" style="edgeLabel;html=1;align=center;verticalAlign=middle;resizable=0;points=[];" parent="1" vertex="1" connectable="0">
          <mxGeometry x="470.00306550165595" y="659.9991544666466" as="geometry" />
        </mxCell>
        <mxCell id="r4U9AMSot-IcRnKY342J-113" value="&lt;span style=&quot;font-size: 18px;&quot;&gt;ユーザに紐づくレシピデータをすべて削除&lt;/span&gt;" style="edgeLabel;html=1;align=center;verticalAlign=middle;resizable=0;points=[];" parent="1" vertex="1" connectable="0">
          <mxGeometry x="789.9997074360637" y="400.0005621705217" as="geometry" />
        </mxCell>
        <mxCell id="r4U9AMSot-IcRnKY342J-132" value="" style="fontSize=12;html=1;endArrow=blockThin;endFill=1;rounded=0;strokeWidth=4;dashed=0;strokeColor=#4284F3;entryX=1;entryY=0.5;entryDx=0;entryDy=0;exitX=0.5;exitY=0;exitDx=0;exitDy=0;edgeStyle=orthogonalEdgeStyle;" parent="1" source="r4U9AMSot-IcRnKY342J-110" target="r4U9AMSot-IcRnKY342J-44" edge="1">
          <mxGeometry width="100" relative="1" as="geometry">
            <mxPoint x="669.9999999999999" y="909.9999999999999" as="sourcePoint" />
            <mxPoint x="1437" y="1154.6" as="targetPoint" />
          </mxGeometry>
        </mxCell>
        <mxCell id="b44mch5LtKIrPGPqQeBs-1" value="" style="shape=image;verticalLabelPosition=bottom;labelBackgroundColor=default;verticalAlign=top;aspect=fixed;imageAspect=0;image=https://s3.dualstack.us-east-2.amazonaws.com/pythondotorg-assets/media/community/logos/python-logo-only.png;" parent="1" vertex="1">
          <mxGeometry x="1210.0002737520128" y="658.5261454135095" width="42.27" height="51.23" as="geometry" />
        </mxCell>
      </root>
    </mxGraphModel>
  </diagram>
</mxfile>
